<svg xmlns="http://www.w3.org/2000/svg" width="256" height="256" viewBox="0 0 256 256" role="img"><defs><radialGradient id="glowgu" cx="50%" cy="47%" r="56%"><stop offset="0" stop-color="#4ade80" stop-opacity="0.16"/><stop offset="1" stop-color="#4ade80" stop-opacity="0"/></radialGradient><linearGradient id="screengu" x1="0" y1="0" x2="0" y2="1"><stop offset="0" stop-color="#1b1b23"/><stop offset="0.5" stop-color="#131319"/><stop offset="1" stop-color="#0c0c0e"/></linearGradient><linearGradient id="bevelgu" x1="0" y1="0" x2="0" y2="1"><stop offset="0" stop-color="#3d3d49"/><stop offset="1" stop-color="#20202b"/></linearGradient><linearGradient id="sheengu" x1="0" y1="0" x2="0" y2="1"><stop offset="0" stop-color="#ffffff" stop-opacity="0.10"/><stop offset="1" stop-color="#ffffff" stop-opacity="0"/></linearGradient><linearGradient id="eyegu" x1="0" y1="0" x2="0" y2="1"><stop offset="0" stop-color="#9bf3b8"/><stop offset="0.5" stop-color="#4ade80"/><stop offset="1" stop-color="#2a9c57"/></linearGradient><radialGradient id="hlgu" cx="50%" cy="50%" r="50%"><stop offset="0" stop-color="#ffffff" stop-opacity="0.92"/><stop offset="0.7" stop-color="#ffffff" stop-opacity="0.5"/><stop offset="1" stop-color="#ffffff" stop-opacity="0"/></radialGradient><filter id="softgu" x="-60%" y="-60%" width="220%" height="220%"><feGaussianBlur stdDeviation="4"/></filter><filter id="feathergu" x="-80%" y="-80%" width="260%" height="260%"><feGaussianBlur stdDeviation="1.1"/></filter><linearGradient id="hairgu" x1="0" y1="0" x2="0" y2="1"><stop offset="0" stop-color="#34343f"/><stop offset="1" stop-color="#222229"/></linearGradient><linearGradient id="beardgu" x1="0" y1="0" x2="0" y2="1"><stop offset="0" stop-color="#3a3a47"/><stop offset="1" stop-color="#23232d"/></linearGradient></defs><rect x="20" y="20" width="216" height="216" rx="52" fill="url(#screengu)" stroke="url(#bevelgu)" stroke-width="4"/><rect x="36" y="32" width="184" height="60" rx="34" fill="url(#sheengu)"/><ellipse cx="128" cy="206" rx="80" ry="16" fill="#000" opacity="0.20" filter="url(#softgu)"/><g transform="translate(128,132) scale(1.1) translate(-128,-120)"><path d="M119 57 Q121 46 128 46 Q135 46 137 57 Z" fill="url(#hairgu)"/><ellipse cx="128" cy="36" rx="15" ry="13" fill="url(#hairgu)"/><ellipse cx="123" cy="32" rx="4" ry="3.4" fill="#4a4a58" opacity="0.7"/><ellipse cx="128" cy="50" rx="12" ry="4.4" fill="none" stroke="#4ade80" stroke-width="3" opacity="0.9"/><path d="M60 90 Q60 61 87 57 Q108 53 128 54 Q148 53 169 57 Q196 61 196 90 Q186 74 158 69 Q128 65 98 69 Q70 74 60 90 Z" fill="url(#hairgu)"/><path d="M82 144 C82 170 98 187 128 189 C158 187 174 170 174 144 C167 157 150 160 128 160 C106 160 89 157 82 144 Z" fill="url(#beardgu)"/><path d="M82 144 C89 157 106 160 128 160 C150 160 167 157 174 144" fill="none" stroke="#54545f" stroke-width="1.6" opacity="0.55"/><path d="M119 150 Q104 147 95 153 Q108 161 123 151 Z" fill="#34343f"/><path d="M137 150 Q152 147 161 153 Q148 161 133 151 Z" fill="#34343f"/><path d="M86 97 Q100 90 116 96" fill="none" stroke="#2f2f3a" stroke-width="6.5" stroke-linecap="round"/><path d="M140 92 Q154 86 168 92" fill="none" stroke="#2f2f3a" stroke-width="6.5" stroke-linecap="round"/><rect x="94" y="106" width="26" height="31" rx="12" fill="url(#eyegu)"/><path d="M100 128 q7 7 14 0" fill="none" stroke="#9bf3b8" stroke-width="2.4" opacity="0.4" filter="url(#feathergu)"/><circle cx="101" cy="113" r="5" fill="url(#hlgu)"/><circle cx="112.72" cy="126.46000000000001" r="2.6" fill="#fff" opacity="0.5"/><rect x="136" y="106" width="26" height="31" rx="12" fill="url(#eyegu)"/><path d="M142 128 q7 7 14 0" fill="none" stroke="#9bf3b8" stroke-width="2.4" opacity="0.4" filter="url(#feathergu)"/><circle cx="143" cy="113" r="5" fill="url(#hlgu)"/><circle cx="154.72" cy="126.46000000000001" r="2.6" fill="#fff" opacity="0.5"/><g fill="none" stroke="#c2c9d2" stroke-width="2.6"><rect x="84" y="101" width="44" height="40" rx="15"/><rect x="128" y="101" width="44" height="40" rx="15"/><path d="M122 110 q6 -4 12 0"/><path d="M84 108 L62 103"/><path d="M172 108 L194 103"/></g><ellipse cx="128" cy="160" rx="22" ry="7" fill="#4ade80" opacity="0.14" filter="url(#softgu)"/><path d="M114 161 Q130 169 144 155" fill="none" stroke="#4ade80" stroke-width="6.5" stroke-linecap="round"/></g></svg>