<svg xmlns="http://www.w3.org/2000/svg" width="256" height="256" viewBox="0 0 256 256" role="img"><defs><radialGradient id="glownv" cx="50%" cy="47%" r="56%"><stop offset="0" stop-color="#e07bc6" stop-opacity="0.22"/><stop offset="1" stop-color="#e07bc6" stop-opacity="0"/></radialGradient><linearGradient id="screennv" x1="0" y1="0" x2="0" y2="1"><stop offset="0" stop-color="#1f1b24"/><stop offset="0.5" stop-color="#15131a"/><stop offset="1" stop-color="#0d0c0f"/></linearGradient><linearGradient id="bevelnv" x1="0" y1="0" x2="0" y2="1"><stop offset="0" stop-color="#473a47"/><stop offset="1" stop-color="#241f29"/></linearGradient><linearGradient id="sheennv" x1="0" y1="0" x2="0" y2="1"><stop offset="0" stop-color="#ffffff" stop-opacity="0.10"/><stop offset="1" stop-color="#ffffff" stop-opacity="0"/></linearGradient><linearGradient id="eyenv" x1="0" y1="0" x2="0" y2="1"><stop offset="0" stop-color="#f6c2e9"/><stop offset="0.5" stop-color="#e07bc6"/><stop offset="1" stop-color="#b8458f"/></linearGradient><radialGradient id="hlnv" cx="50%" cy="50%" r="50%"><stop offset="0" stop-color="#ffffff" stop-opacity="0.92"/><stop offset="0.7" stop-color="#ffffff" stop-opacity="0.5"/><stop offset="1" stop-color="#ffffff" stop-opacity="0"/></radialGradient><filter id="softnv" x="-60%" y="-60%" width="220%" height="220%"><feGaussianBlur stdDeviation="4"/></filter><filter id="feathernv" x="-80%" y="-80%" width="260%" height="260%"><feGaussianBlur stdDeviation="1.1"/></filter><linearGradient id="bownv" x1="0" y1="0" x2="0" y2="1"><stop offset="0" stop-color="#f29ad6"/><stop offset="1" stop-color="#cf5ca8"/></linearGradient></defs><circle cx="128" cy="120" r="132" fill="url(#glownv)"/><rect x="100" y="170" width="20" height="32" rx="10" fill="#161318" stroke="url(#bevelnv)" stroke-width="2.5"/><rect x="136" y="170" width="20" height="32" rx="10" fill="#161318" stroke="url(#bevelnv)" stroke-width="2.5"/><rect x="59" y="58" width="138" height="124" rx="40" fill="url(#screennv)" stroke="url(#bevelnv)" stroke-width="3"/><rect x="73" y="68" width="110" height="40" rx="20" fill="url(#sheennv)"/><ellipse cx="128" cy="188" rx="60" ry="14" fill="#000" opacity="0.22" filter="url(#softnv)"/><path d="M128 60 L93 51 Q83 60 93 69 Z" fill="url(#bownv)"/><path d="M128 60 L163 51 Q173 60 163 69 Z" fill="url(#bownv)"/><path d="M100 55 Q96 60 100 65" fill="none" stroke="#b8458f" stroke-width="2" opacity="0.5"/><path d="M156 55 Q160 60 156 65" fill="none" stroke="#b8458f" stroke-width="2" opacity="0.5"/><circle cx="128" cy="60" r="8.5" fill="#cf5ca8"/><circle cx="125" cy="57" r="2.8" fill="#fff" opacity="0.55"/><ellipse cx="83" cy="146" rx="11" ry="6.5" fill="#f29ad6" opacity="0.45" filter="url(#softnv)"/><ellipse cx="173" cy="146" rx="11" ry="6.5" fill="#f29ad6" opacity="0.45" filter="url(#softnv)"/><path d="M90 123 Q107 103 124 123" fill="none" stroke="#e07bc6" stroke-width="7" stroke-linecap="round"/><path d="M132 123 Q149 103 166 123" fill="none" stroke="#e07bc6" stroke-width="7" stroke-linecap="round"/><g stroke="#f6c2e9" stroke-width="3" stroke-linecap="round" fill="none"><path d="M92 96 l-7 -6"/><path d="M91 104 l-8 -3"/><path d="M164 96 l7 -6"/><path d="M165 104 l8 -3"/></g><ellipse cx="128" cy="156" rx="22" ry="7" fill="#e07bc6" opacity="0.14" filter="url(#softnv)"/><path d="M110 152 Q128 172 146 152" fill="none" stroke="#e07bc6" stroke-width="8" stroke-linecap="round"/><path d="M72 75 C74.6 80 74.6 80 79 84 C74.6 88 74.6 88 72 93 C69.4 88 69.4 88 65 84 C69.4 80 69.4 80 72 75 Z" fill="#f6c2e9"/><path d="M186 68.35 C188.21 72.6 188.21 72.6 191.95 76 C188.21 79.4 188.21 79.4 186 83.65 C183.79 79.4 183.79 79.4 180.05 76 C183.79 72.6 183.79 72.6 186 68.35 Z" fill="#f6c2e9"/></svg>