<svg xmlns="http://www.w3.org/2000/svg" width="256" height="256" viewBox="0 0 256 256" role="img"><defs><radialGradient id="glownv" cx="50%" cy="47%" r="56%"><stop offset="0" stop-color="#e07bc6" stop-opacity="0.22"/><stop offset="1" stop-color="#e07bc6" stop-opacity="0"/></radialGradient><linearGradient id="screennv" x1="0" y1="0" x2="0" y2="1"><stop offset="0" stop-color="#1f1b24"/><stop offset="0.5" stop-color="#15131a"/><stop offset="1" stop-color="#0d0c0f"/></linearGradient><linearGradient id="bevelnv" x1="0" y1="0" x2="0" y2="1"><stop offset="0" stop-color="#473a47"/><stop offset="1" stop-color="#241f29"/></linearGradient><linearGradient id="sheennv" x1="0" y1="0" x2="0" y2="1"><stop offset="0" stop-color="#ffffff" stop-opacity="0.10"/><stop offset="1" stop-color="#ffffff" stop-opacity="0"/></linearGradient><linearGradient id="eyenv" x1="0" y1="0" x2="0" y2="1"><stop offset="0" stop-color="#f6c2e9"/><stop offset="0.5" stop-color="#e07bc6"/><stop offset="1" stop-color="#b8458f"/></linearGradient><radialGradient id="hlnv" cx="50%" cy="50%" r="50%"><stop offset="0" stop-color="#ffffff" stop-opacity="0.92"/><stop offset="0.7" stop-color="#ffffff" stop-opacity="0.5"/><stop offset="1" stop-color="#ffffff" stop-opacity="0"/></radialGradient><filter id="softnv" x="-60%" y="-60%" width="220%" height="220%"><feGaussianBlur stdDeviation="4"/></filter><filter id="feathernv" x="-80%" y="-80%" width="260%" height="260%"><feGaussianBlur stdDeviation="1.1"/></filter><linearGradient id="bownv" x1="0" y1="0" x2="0" y2="1"><stop offset="0" stop-color="#f29ad6"/><stop offset="1" stop-color="#cf5ca8"/></linearGradient></defs><circle cx="128" cy="120" r="132" fill="url(#glownv)"/><rect x="100" y="170" width="20" height="32" rx="10" fill="#161318" stroke="url(#bevelnv)" stroke-width="2.5"/><rect x="136" y="170" width="20" height="32" rx="10" fill="#161318" stroke="url(#bevelnv)" stroke-width="2.5"/><rect x="59" y="58" width="138" height="124" rx="40" fill="url(#screennv)" stroke="url(#bevelnv)" stroke-width="3"/><rect x="73" y="68" width="110" height="40" rx="20" fill="url(#sheennv)"/><ellipse cx="128" cy="188" rx="60" ry="14" fill="#000" opacity="0.22" filter="url(#softnv)"/><path d="M128 60 L93 51 Q83 60 93 69 Z" fill="url(#bownv)"/><path d="M128 60 L163 51 Q173 60 163 69 Z" fill="url(#bownv)"/><path d="M100 55 Q96 60 100 65" fill="none" stroke="#b8458f" stroke-width="2" opacity="0.5"/><path d="M156 55 Q160 60 156 65" fill="none" stroke="#b8458f" stroke-width="2" opacity="0.5"/><circle cx="128" cy="60" r="8.5" fill="#cf5ca8"/><circle cx="125" cy="57" r="2.8" fill="#fff" opacity="0.55"/><ellipse cx="83" cy="146" rx="11" ry="6.5" fill="#f29ad6" opacity="0.45" filter="url(#softnv)"/><ellipse cx="173" cy="146" rx="11" ry="6.5" fill="#f29ad6" opacity="0.45" filter="url(#softnv)"/><path d="M94 92 Q107 84 120 90" fill="none" stroke="#e07bc6" stroke-width="5" stroke-linecap="round"/><path d="M136 92 Q149 84 162 90" fill="none" stroke="#e07bc6" stroke-width="5" stroke-linecap="round"/><rect x="90" y="94" width="34" height="46" rx="16" fill="url(#eyenv)"/><path d="M96 131 q11 7 22 0" fill="none" stroke="#f6c2e9" stroke-width="2.4" opacity="0.4" filter="url(#feathernv)"/><circle cx="100" cy="106" r="7" fill="url(#hlnv)"/><circle cx="114.48" cy="124.36" r="2.6" fill="#fff" opacity="0.5"/><rect x="132" y="94" width="34" height="46" rx="16" fill="url(#eyenv)"/><path d="M138 131 q11 7 22 0" fill="none" stroke="#f6c2e9" stroke-width="2.4" opacity="0.4" filter="url(#feathernv)"/><circle cx="142" cy="106" r="7" fill="url(#hlnv)"/><circle cx="156.48" cy="124.36" r="2.6" fill="#fff" opacity="0.5"/><g stroke="#f6c2e9" stroke-width="3" stroke-linecap="round" fill="none"><path d="M92 96 l-7 -6"/><path d="M91 104 l-8 -3"/><path d="M164 96 l7 -6"/><path d="M165 104 l8 -3"/></g><rect x="117" y="150" width="22" height="8" rx="4" fill="#e07bc6"/><circle cx="128" cy="120" r="82" fill="none" stroke="#fbbf24" stroke-width="2.4" opacity="0"><animate attributeName="r" values="72;104" dur="2s" repeatCount="indefinite"/><animate attributeName="opacity" values="0.45;0" dur="2s" repeatCount="indefinite"/></circle><circle cx="128" cy="26" r="19" fill="#fbbf24" opacity="0.13" filter="url(#softnv)"/><path d="M8.09 -10.81 L7.86 -20.24 L12.46 -20.24 Q14.35 -20.24 15.45 -21.18 Q16.56 -22.12 16.56 -23.69 Q16.56 -25.30 15.43 -26.22 Q14.30 -27.14 12.42 -27.14 L4.83 -27.14 L4.83 -33.58 L11.96 -33.58 Q15.50 -33.58 18.08 -32.36 Q20.66 -31.14 22.06 -28.93 Q23.46 -26.72 23.46 -23.69 Q23.46 -20.79 22.26 -18.63 Q21.07 -16.47 18.90 -15.24 Q16.75 -14.03 13.84 -14.03 L13.84 -10.81 L8.09 -10.81 Z M10.31 0.23 Q8.74 0.23 7.80 -0.67 Q6.86 -1.57 6.86 -2.99 Q6.86 -4.46 7.80 -5.33 Q8.74 -6.21 10.31 -6.21 L11.69 -6.21 Q13.25 -6.21 14.19 -5.33 Q15.14 -4.46 15.14 -2.99 Q15.14 -1.52 14.19 -0.64 Q13.25 0.23 11.64 0.23 L10.31 0.23 Z" transform="translate(113.86,41.67)" fill="#fbbf24" fill-rule="evenodd"/><rect x="92" y="220" width="72" height="26" rx="8" fill="#0c0c0e" stroke="#26262e" stroke-width="2"/><path d="M3.70 2.20 L3.70 -16.60 L9.30 -16.60 L9.30 -14.30 L6.20 -14.30 L6.20 -0.10 L9.30 -0.10 L9.30 2.20 L3.70 2.20 Z M15.30 3.60 L16.86 -0.60 L12.72 -11.00 L15.36 -11.00 L17.48 -5.38 Q17.66 -4.88 17.84 -4.29 Q18.02 -3.70 18.10 -3.20 Q18.16 -3.70 18.33 -4.29 Q18.50 -4.88 18.68 -5.38 L20.64 -11.00 L23.28 -11.00 L17.92 3.60 L15.30 3.60 Z M25.20 2.20 L32.20 -16.60 L34.80 -16.60 L27.80 2.20 L25.20 2.20 Z M37.54 -0.00 L37.54 -11.00 L39.98 -11.00 L39.98 -8.94 Q40.18 -9.98 40.96 -10.59 Q41.74 -11.20 42.94 -11.20 Q44.56 -11.20 45.53 -10.12 Q46.50 -9.04 46.50 -7.22 L46.50 -0.00 L44.00 -0.00 L44.00 -6.92 Q44.00 -7.94 43.47 -8.49 Q42.94 -9.04 42.04 -9.04 Q41.10 -9.04 40.57 -8.48 Q40.04 -7.92 40.04 -6.88 L40.04 -0.00 L37.54 -0.00 Z M50.70 2.20 L50.70 -0.10 L53.80 -0.10 L53.80 -14.30 L50.70 -14.30 L50.70 -16.60 L56.30 -16.60 L56.30 2.20 L50.70 2.20 Z" transform="translate(98,239.5)" fill="#f6c2e9" fill-rule="evenodd"/></svg>