<svg xmlns="http://www.w3.org/2000/svg" width="478" height="150" viewBox="0 0 478 150" role="img"><defs><radialGradient id="glowad" cx="50%" cy="47%" r="56%"><stop offset="0" stop-color="#fbbf24" stop-opacity="0.18"/><stop offset="1" stop-color="#fbbf24" stop-opacity="0"/></radialGradient><linearGradient id="screenad" x1="0" y1="0" x2="0" y2="1"><stop offset="0" stop-color="#221e18"/><stop offset="0.5" stop-color="#161310"/><stop offset="1" stop-color="#0e0c09"/></linearGradient><linearGradient id="bevelad" x1="0" y1="0" x2="0" y2="1"><stop offset="0" stop-color="#4a4334"/><stop offset="1" stop-color="#26221a"/></linearGradient><linearGradient id="sheenad" x1="0" y1="0" x2="0" y2="1"><stop offset="0" stop-color="#ffffff" stop-opacity="0.10"/><stop offset="1" stop-color="#ffffff" stop-opacity="0"/></linearGradient><linearGradient id="eyead" x1="0" y1="0" x2="0" y2="1"><stop offset="0" stop-color="#ffe08a"/><stop offset="0.5" stop-color="#fbbf24"/><stop offset="1" stop-color="#d18a09"/></linearGradient><radialGradient id="hlad" cx="50%" cy="50%" r="50%"><stop offset="0" stop-color="#ffffff" stop-opacity="0.92"/><stop offset="0.7" stop-color="#ffffff" stop-opacity="0.5"/><stop offset="1" stop-color="#ffffff" stop-opacity="0"/></radialGradient><filter id="softad" x="-60%" y="-60%" width="220%" height="220%"><feGaussianBlur stdDeviation="4"/></filter><filter id="featherad" x="-80%" y="-80%" width="260%" height="260%"><feGaussianBlur stdDeviation="1.1"/></filter><linearGradient id="leafad" x1="0" y1="0" x2="0" y2="1"><stop offset="0" stop-color="#6ee79a"/><stop offset="1" stop-color="#2fa45f"/></linearGradient></defs><g transform="translate(2,8) scale(0.52)"><circle cx="128" cy="120" r="132" fill="url(#glowad)"/><rect x="96" y="182" width="22" height="32" rx="11" fill="#171410" stroke="url(#bevelad)" stroke-width="2.5"/><rect x="138" y="182" width="22" height="32" rx="11" fill="#171410" stroke="url(#bevelad)" stroke-width="2.5"/><rect x="58" y="58" width="140" height="138" rx="50" fill="url(#screenad)" stroke="url(#bevelad)" stroke-width="3"/><rect x="72" y="68" width="112" height="44" rx="24" fill="url(#sheenad)"/><ellipse cx="128" cy="198" rx="60" ry="14" fill="#000" opacity="0.22" filter="url(#softad)"/><path d="M128 58 C126 40 132 30 142 26 C140 38 138 50 128 58 Z" fill="url(#leafad)"/><path d="M128 58 C130 44 126 36 118 32 C120 42 122 52 128 58 Z" fill="url(#leafad)" opacity="0.9"/><ellipse cx="78" cy="156" rx="11" ry="6.5" fill="#ff9e6b" opacity="0.4" filter="url(#softad)"/><ellipse cx="178" cy="156" rx="11" ry="6.5" fill="#ff9e6b" opacity="0.4" filter="url(#softad)"/><rect x="84" y="104" width="36" height="48" rx="17" fill="url(#eyead)"/><path d="M90 143 q12 7 24 0" fill="none" stroke="#ffe08a" stroke-width="2.4" opacity="0.4" filter="url(#featherad)"/><circle cx="95" cy="117" r="7.5" fill="url(#hlad)"/><circle cx="109.92" cy="135.68" r="2.6" fill="#fff" opacity="0.5"/><rect x="136" y="104" width="36" height="48" rx="17" fill="url(#eyead)"/><path d="M142 143 q12 7 24 0" fill="none" stroke="#ffe08a" stroke-width="2.4" opacity="0.4" filter="url(#featherad)"/><circle cx="147" cy="117" r="7.5" fill="url(#hlad)"/><circle cx="161.92" cy="135.68" r="2.6" fill="#fff" opacity="0.5"/><g stroke="#ffe08a" stroke-width="3" stroke-linecap="round" fill="none"><path d="M86 104 l-7 -6"/><path d="M85 112 l-8 -3"/><path d="M170 104 l7 -6"/><path d="M171 112 l8 -3"/></g><ellipse cx="128" cy="165" rx="22" ry="7" fill="#fbbf24" opacity="0.14" filter="url(#softad)"/><path d="M114 163 Q128 176 142 163" fill="none" stroke="#fbbf24" stroke-width="8.5" stroke-linecap="round"/></g><text x="150" y="96" font-family="'JetBrains Mono','Cascadia Mono','SF Mono',monospace" font-size="60" font-weight="800" letter-spacing="-1" fill="#e8e8ed">adanana</text><rect x="438" y="50" width="20" height="46" rx="4" fill="#fbbf24"><animate attributeName="opacity" values="1;1;0;0;1" keyTimes="0;0.5;0.52;0.98;1" dur="1.3s" repeatCount="indefinite"/></rect></svg>