<svg xmlns="http://www.w3.org/2000/svg" width="256" height="256" viewBox="0 0 256 256" role="img"><defs><linearGradient id="screenAKI" x1="0" y1="0" x2="0" y2="1"><stop offset="0" stop-color="#1b1b23"/><stop offset="0.5" stop-color="#131319"/><stop offset="1" stop-color="#0c0c0e"/></linearGradient><linearGradient id="bevelAKI" x1="0" y1="0" x2="0" y2="1"><stop offset="0" stop-color="#3d3d49"/><stop offset="1" stop-color="#20202b"/></linearGradient><linearGradient id="sheenAKI" x1="0" y1="0" x2="0" y2="1"><stop offset="0" stop-color="#ffffff" stop-opacity="0.10"/><stop offset="1" stop-color="#ffffff" stop-opacity="0"/></linearGradient><linearGradient id="eyeAKI" x1="0" y1="0" x2="0" y2="1"><stop offset="0" stop-color="#a99cff"/><stop offset="0.5" stop-color="#8b7bff"/><stop offset="1" stop-color="#5e46df"/></linearGradient><radialGradient id="hlAKI" cx="50%" cy="50%" r="50%"><stop offset="0" stop-color="#ffffff" stop-opacity="0.92"/><stop offset="0.7" stop-color="#ffffff" stop-opacity="0.5"/><stop offset="1" stop-color="#ffffff" stop-opacity="0"/></radialGradient><filter id="softAKI" x="-60%" y="-60%" width="220%" height="220%"><feGaussianBlur stdDeviation="4"/></filter><filter id="featherAKI" x="-80%" y="-80%" width="260%" height="260%"><feGaussianBlur stdDeviation="1.1"/></filter></defs><rect x="20" y="20" width="216" height="216" rx="52" fill="url(#screenAKI)" stroke="url(#bevelAKI)" stroke-width="4"/><rect x="36" y="32" width="184" height="60" rx="34" fill="url(#sheenAKI)"/><ellipse cx="128" cy="206" rx="80" ry="16" fill="#000" opacity="0.20" filter="url(#softAKI)"/><path d="M84 88 Q102 80 120 86" fill="none" stroke="#7c6bff" stroke-width="6" stroke-linecap="round"/><path d="M136 86 Q154 80 172 88" fill="none" stroke="#7c6bff" stroke-width="6" stroke-linecap="round"/><rect x="78" y="98" width="44" height="58" rx="20" fill="url(#eyeAKI)"/><circle cx="91" cy="113" r="9" fill="url(#hlAKI)"/><circle cx="111" cy="141" r="3.2" fill="#ffffff" opacity="0.55"/><rect x="134" y="98" width="44" height="58" rx="20" fill="url(#eyeAKI)"/><circle cx="147" cy="113" r="9" fill="url(#hlAKI)"/><circle cx="167" cy="141" r="3.2" fill="#ffffff" opacity="0.55"/><ellipse cx="128" cy="167" rx="32" ry="10" fill="#7c6bff" opacity="0.14" filter="url(#softAKI)"/><rect x="99" y="160" width="58" height="15" rx="7.5" fill="#7c6bff"/><circle cx="202" cy="54" r="34" fill="#0c0c0e"/><circle cx="202" cy="54" r="27" fill="#fbbf24"/><path d="M6.69 -8.93 L6.50 -16.72 L10.30 -16.72 Q11.86 -16.72 12.77 -17.50 Q13.68 -18.28 13.68 -19.57 Q13.68 -20.90 12.75 -21.66 Q11.82 -22.42 10.26 -22.42 L3.99 -22.42 L3.99 -27.74 L9.88 -27.74 Q12.81 -27.74 14.93 -26.73 Q17.06 -25.73 18.22 -23.90 Q19.38 -22.08 19.38 -19.57 Q19.38 -17.18 18.39 -15.39 Q17.40 -13.60 15.62 -12.59 Q13.83 -11.59 11.44 -11.59 L11.44 -8.93 L6.69 -8.93 Z M8.51 0.19 Q7.22 0.19 6.44 -0.55 Q5.66 -1.29 5.66 -2.47 Q5.66 -3.69 6.44 -4.41 Q7.22 -5.13 8.51 -5.13 L9.65 -5.13 Q10.94 -5.13 11.72 -4.41 Q12.50 -3.69 12.50 -2.47 Q12.50 -1.25 11.72 -0.53 Q10.94 0.19 9.61 0.19 L8.51 0.19 Z" transform="translate(190.31,66.78)" fill="#0c0c0e" fill-rule="evenodd"/></svg>