<svg xmlns="http://www.w3.org/2000/svg" width="435" height="180" viewBox="0 0 435 180" role="img"><defs><linearGradient id="screenWM" x1="0" y1="0" x2="0" y2="1"><stop offset="0" stop-color="#1b1b23"/><stop offset="0.5" stop-color="#131319"/><stop offset="1" stop-color="#0c0c0e"/></linearGradient><linearGradient id="bevelWM" x1="0" y1="0" x2="0" y2="1"><stop offset="0" stop-color="#3d3d49"/><stop offset="1" stop-color="#20202b"/></linearGradient><linearGradient id="sheenWM" x1="0" y1="0" x2="0" y2="1"><stop offset="0" stop-color="#ffffff" stop-opacity="0.10"/><stop offset="1" stop-color="#ffffff" stop-opacity="0"/></linearGradient><linearGradient id="eyeWM" x1="0" y1="0" x2="0" y2="1"><stop offset="0" stop-color="#a99cff"/><stop offset="0.5" stop-color="#8b7bff"/><stop offset="1" stop-color="#5e46df"/></linearGradient><radialGradient id="hlWM" cx="50%" cy="50%" r="50%"><stop offset="0" stop-color="#ffffff" stop-opacity="0.92"/><stop offset="0.7" stop-color="#ffffff" stop-opacity="0.5"/><stop offset="1" stop-color="#ffffff" stop-opacity="0"/></radialGradient><filter id="softWM" x="-60%" y="-60%" width="220%" height="220%"><feGaussianBlur stdDeviation="4"/></filter><filter id="featherWM" x="-80%" y="-80%" width="260%" height="260%"><feGaussianBlur stdDeviation="1.1"/></filter></defs><g transform="translate(-6,19.6) scale(0.55)"><rect x="98.0" y="180" width="20" height="32" rx="10" fill="#141419" stroke="url(#bevelWM)" stroke-width="2.5"/><rect x="138.0" y="180" width="20" height="32" rx="10" fill="#141419" stroke="url(#bevelWM)" stroke-width="2.5"/><rect x="56" y="50" width="144" height="144" rx="44" fill="url(#screenWM)" stroke="url(#bevelWM)" stroke-width="3"/><rect x="68" y="60" width="120" height="48" rx="26" fill="url(#sheenWM)"/><ellipse cx="128" cy="190" rx="60" ry="15" fill="#000" opacity="0.22" filter="url(#softWM)"/><rect x="87.0" y="94.0" width="34" height="46" rx="16" fill="url(#eyeWM)"/><path d="M92.0 133.0 q12.0 9 24 0" fill="none" stroke="#a99cff" stroke-width="2.4" opacity="0.45" filter="url(#featherWM)"/><circle cx="97" cy="106.0" r="7" fill="url(#hlWM)"/><circle cx="113" cy="127.0" r="2.6" fill="#ffffff" opacity="0.55"/><rect x="135.0" y="94.0" width="34" height="46" rx="16" fill="url(#eyeWM)"/><path d="M140.0 133.0 q12.0 9 24 0" fill="none" stroke="#a99cff" stroke-width="2.4" opacity="0.45" filter="url(#featherWM)"/><circle cx="145" cy="106.0" r="7" fill="url(#hlWM)"/><circle cx="161" cy="127.0" r="2.6" fill="#ffffff" opacity="0.55"/><ellipse cx="128" cy="152" rx="24" ry="8" fill="#7c6bff" opacity="0.14" filter="url(#softWM)"/><path d="M110 150 Q128 164 146 150" fill="none" stroke="#7c6bff" stroke-width="8" stroke-linecap="round"/></g><path d="M3.65 -0.00 L3.65 -52.80 L15.45 -52.80 L15.45 -44.64 L15.64 -44.64 Q15.93 -48.67 18.33 -51.21 Q20.73 -53.76 24.48 -53.76 Q27.93 -53.76 30.48 -51.31 Q33.03 -48.87 33.80 -44.92 Q34.08 -48.96 36.57 -51.36 Q39.07 -53.76 42.81 -53.76 Q47.52 -53.76 50.73 -50.01 Q53.95 -46.27 53.95 -40.32 L53.95 -0.00 L41.56 -0.00 L41.56 -38.68 Q41.56 -43.29 37.92 -43.29 Q34.47 -43.29 34.47 -38.68 L34.47 -0.00 L23.13 -0.00 L23.13 -38.68 Q23.13 -43.29 19.68 -43.29 Q16.04 -43.29 16.04 -38.68 L16.04 -0.00 L3.65 -0.00 Z M86.40 0.96 Q75.75 0.96 69.75 -4.80 Q63.75 -10.56 63.75 -20.55 L63.75 -52.80 L78.15 -52.80 L78.15 -20.64 Q78.15 -11.52 86.40 -11.52 Q90.33 -11.52 92.49 -13.88 Q94.65 -16.23 94.65 -20.64 L94.65 -52.80 L109.05 -52.80 L109.05 -20.55 Q109.05 -10.47 103.00 -4.75 Q96.96 0.96 86.40 0.96 Z M121.53 -0.00 L121.53 -52.80 L135.45 -52.80 L135.45 -43.20 Q136.60 -48.00 140.40 -50.88 Q144.19 -53.76 149.67 -53.76 Q157.35 -53.76 162.00 -48.38 Q166.65 -43.00 166.65 -34.08 L166.65 -0.00 L152.25 -0.00 L152.25 -32.64 Q152.25 -36.77 150.09 -39.02 Q147.93 -41.28 144.09 -41.28 Q140.25 -41.28 138.09 -39.02 Q135.93 -36.77 135.93 -32.64 L135.93 -0.00 L121.53 -0.00 Z M201.60 0.96 Q190.95 0.96 184.95 -4.80 Q178.95 -10.56 178.95 -20.55 L178.95 -52.80 L193.35 -52.80 L193.35 -20.64 Q193.35 -11.52 201.60 -11.52 Q205.53 -11.52 207.69 -13.88 Q209.85 -16.23 209.85 -20.64 L209.85 -52.80 L224.25 -52.80 L224.25 -20.55 Q224.25 -10.47 218.20 -4.75 Q212.16 0.96 201.60 0.96 Z" transform="translate(155.2,116.0)" fill="#e8e8ed" fill-rule="evenodd"/><rect x="391.4" y="54.0" width="20" height="64" rx="5" fill="#7c6bff"><animate attributeName="opacity" values="1;1;0;0;1" keyTimes="0;0.5;0.52;0.98;1" dur="1.3s" repeatCount="indefinite"/></rect></svg>