<svg xmlns="http://www.w3.org/2000/svg" width="1200" height="1740" viewBox="0 0 1200 1740" role="img"><rect width="1200" height="1740" fill="#0d0d0f"/><rect x="2" y="2" width="1196" height="1736" rx="2" fill="none" stroke="#26262e" stroke-width="2"/><defs><linearGradient id="screenGH" x1="0" y1="0" x2="0" y2="1"><stop offset="0" stop-color="#1b1b23"/><stop offset="0.5" stop-color="#131319"/><stop offset="1" stop-color="#0c0c0e"/></linearGradient><linearGradient id="bevelGH" x1="0" y1="0" x2="0" y2="1"><stop offset="0" stop-color="#3d3d49"/><stop offset="1" stop-color="#20202b"/></linearGradient><linearGradient id="sheenGH" x1="0" y1="0" x2="0" y2="1"><stop offset="0" stop-color="#ffffff" stop-opacity="0.10"/><stop offset="1" stop-color="#ffffff" stop-opacity="0"/></linearGradient><linearGradient id="eyeGH" x1="0" y1="0" x2="0" y2="1"><stop offset="0" stop-color="#a99cff"/><stop offset="0.5" stop-color="#8b7bff"/><stop offset="1" stop-color="#5e46df"/></linearGradient><radialGradient id="hlGH" cx="50%" cy="50%" r="50%"><stop offset="0" stop-color="#ffffff" stop-opacity="0.92"/><stop offset="0.7" stop-color="#ffffff" stop-opacity="0.5"/><stop offset="1" stop-color="#ffffff" stop-opacity="0"/></radialGradient><filter id="softGH" x="-60%" y="-60%" width="220%" height="220%"><feGaussianBlur stdDeviation="4"/></filter><filter id="featherGH" x="-80%" y="-80%" width="260%" height="260%"><feGaussianBlur stdDeviation="1.1"/></filter></defs><g transform="translate(64,34) scale(0.30)"><rect x="20" y="20" width="216" height="216" rx="52" fill="url(#screenGH)" stroke="url(#bevelGH)" stroke-width="4"/><rect x="36" y="32" width="184" height="60" rx="34" fill="url(#sheenGH)"/><ellipse cx="128" cy="206" rx="80" ry="16" fill="#000" opacity="0.20" filter="url(#softGH)"/><rect x="78" y="98" width="44" height="58" rx="20" fill="url(#eyeGH)"/><circle cx="91" cy="113" r="9" fill="url(#hlGH)"/><circle cx="111" cy="141" r="3.2" fill="#ffffff" opacity="0.55"/><rect x="134" y="98" width="44" height="58" rx="20" fill="url(#eyeGH)"/><circle cx="147" cy="113" r="9" fill="url(#hlGH)"/><circle cx="167" cy="141" r="3.2" fill="#ffffff" opacity="0.55"/><ellipse cx="128" cy="167" rx="32" ry="10" fill="#7c6bff" opacity="0.14" filter="url(#softGH)"/><rect x="99" y="160" width="58" height="15" rx="7.5" fill="#7c6bff"/></g><path d="M2.77 -0.00 L2.77 -32.12 L13.20 -32.12 Q16.54 -32.12 19.03 -30.84 Q21.52 -29.57 22.90 -27.26 Q24.29 -24.95 24.29 -21.82 L24.29 -10.34 Q24.29 -7.26 22.90 -4.93 Q21.52 -2.60 19.03 -1.30 Q16.54 -0.00 13.20 -0.00 L2.77 -0.00 Z M9.37 -5.94 L13.20 -5.94 Q15.18 -5.94 16.43 -7.17 Q17.69 -8.40 17.69 -10.34 L17.69 -21.82 Q17.69 -23.76 16.43 -24.97 Q15.18 -26.18 13.20 -26.18 L9.37 -26.18 L9.37 -5.94 Z M39.60 0.44 Q36.39 0.44 34.01 -0.77 Q31.64 -1.98 30.34 -4.16 Q29.04 -6.34 29.04 -9.24 L29.04 -14.96 Q29.04 -17.86 30.34 -20.04 Q31.64 -22.22 34.01 -23.43 Q36.39 -24.64 39.60 -24.64 Q42.86 -24.64 45.21 -23.43 Q47.56 -22.22 48.86 -20.04 Q50.16 -17.86 50.16 -14.96 L50.16 -9.24 Q50.16 -6.34 48.86 -4.16 Q47.56 -1.98 45.21 -0.77 Q42.86 0.44 39.60 0.44 Z M39.60 -5.28 Q41.54 -5.28 42.55 -6.31 Q43.56 -7.35 43.56 -9.24 L43.56 -14.96 Q43.56 -16.90 42.55 -17.91 Q41.54 -18.92 39.60 -18.92 Q37.71 -18.92 36.67 -17.91 Q35.64 -16.90 35.64 -14.96 L35.64 -9.24 Q35.64 -7.35 36.67 -6.31 Q37.71 -5.28 39.60 -5.28 Z M66.40 0.44 Q63.18 0.44 60.76 -0.77 Q58.34 -1.98 57.02 -4.16 Q55.70 -6.34 55.70 -9.24 L55.70 -14.96 Q55.70 -17.91 57.02 -20.06 Q58.34 -22.22 60.76 -23.43 Q63.18 -24.64 66.40 -24.64 Q71.19 -24.64 74.05 -22.22 Q76.91 -19.80 77.09 -15.62 L70.66 -15.62 Q70.53 -17.16 69.36 -18.04 Q68.20 -18.92 66.40 -18.92 Q64.42 -18.92 63.36 -17.91 Q62.30 -16.90 62.30 -14.96 L62.30 -9.24 Q62.30 -7.35 63.36 -6.31 Q64.42 -5.28 66.40 -5.28 Q68.20 -5.28 69.36 -6.14 Q70.53 -7.00 70.66 -8.58 L77.09 -8.58 Q76.91 -4.40 74.05 -1.98 Q71.19 0.44 66.40 0.44 Z M82.32 -0.00 L82.32 -32.12 L88.92 -32.12 L88.92 -15.05 L92.27 -15.05 L97.33 -24.20 L104.59 -24.20 L97.86 -12.36 L104.72 -0.00 L97.33 -0.00 L92.22 -9.50 L88.92 -9.50 L88.92 -0.00 L82.32 -0.00 Z M115.50 -0.00 L115.50 -26.18 L107.36 -26.18 L107.36 -32.12 L130.24 -32.12 L130.24 -26.18 L122.10 -26.18 L122.10 -0.00 L115.50 -0.00 Z M145.24 0.44 Q142.03 0.44 139.63 -0.77 Q137.24 -1.98 135.94 -4.16 Q134.64 -6.34 134.64 -9.24 L134.64 -14.96 Q134.64 -17.86 135.94 -20.04 Q137.24 -22.22 139.63 -23.43 Q142.03 -24.64 145.24 -24.64 Q148.46 -24.64 150.81 -23.43 Q153.16 -22.22 154.46 -20.04 Q155.76 -17.86 155.76 -14.96 L155.76 -10.47 L140.93 -10.47 L140.93 -9.24 Q140.93 -6.95 142.01 -5.89 Q143.09 -4.84 145.24 -4.84 Q146.65 -4.84 147.70 -5.28 Q148.76 -5.72 148.94 -6.60 L155.41 -6.60 Q154.70 -3.43 151.93 -1.49 Q149.16 0.44 145.24 0.44 Z M140.93 -14.96 L140.93 -14.39 L149.47 -14.48 L149.47 -15.05 Q149.47 -17.29 148.43 -18.52 Q147.40 -19.76 145.24 -19.76 Q143.09 -19.76 142.01 -18.48 Q140.93 -17.20 140.93 -14.96 Z M162.18 -0.00 L162.18 -24.20 L168.56 -24.20 L168.56 -19.62 Q169.09 -21.96 170.87 -23.30 Q172.66 -24.64 175.34 -24.64 Q178.99 -24.64 181.06 -22.17 Q183.13 -19.71 183.13 -15.40 L183.13 -12.98 L176.53 -12.98 L176.53 -14.96 Q176.53 -16.85 175.51 -17.88 Q174.50 -18.92 172.66 -18.92 Q170.81 -18.92 169.79 -17.75 Q168.78 -16.59 168.78 -14.43 L168.78 -0.00 L162.18 -0.00 Z M186.47 -0.00 L186.47 -24.20 L191.88 -24.20 L191.88 -20.46 L191.97 -20.46 Q192.10 -22.31 193.20 -23.47 Q194.30 -24.64 196.02 -24.64 Q197.60 -24.64 198.77 -23.52 Q199.94 -22.40 200.29 -20.59 Q200.42 -22.44 201.56 -23.54 Q202.71 -24.64 204.42 -24.64 Q206.58 -24.64 208.05 -22.92 Q209.53 -21.21 209.53 -18.48 L209.53 -0.00 L203.85 -0.00 L203.85 -17.73 Q203.85 -19.84 202.18 -19.84 Q200.60 -19.84 200.60 -17.73 L200.60 -0.00 L195.40 -0.00 L195.40 -17.73 Q195.40 -19.84 193.82 -19.84 Q192.15 -19.84 192.15 -17.73 L192.15 -0.00 L186.47 -0.00 Z" transform="translate(143.23,86)" fill="#e8e8ed" fill-rule="evenodd"/><rect x="362.7587030029297" y="56" width="11" height="34" rx="3" fill="#7c6bff"/><text x="1136" y="70" font-family="JetBrains Mono, monospace" font-size="16" fill="#a0a0ab" text-anchor="end">brand &amp; mascot guide</text><line x1="64" y1="116" x2="1136" y2="116" stroke="#26262e" stroke-width="1.5"/><text x="64" y="152" font-family="JetBrains Mono, monospace" font-size="14" fill="#6b6b76" text-anchor="start">the mascot</text><g transform="translate(60,184) scale(0.80)"><defs><radialGradient id="glowGA" cx="50%" cy="47%" r="56%"><stop offset="0" stop-color="#7c6bff" stop-opacity="0.22"/><stop offset="1" stop-color="#7c6bff" stop-opacity="0"/></radialGradient><linearGradient id="screenGA" x1="0" y1="0" x2="0" y2="1"><stop offset="0" stop-color="#1b1b23"/><stop offset="0.5" stop-color="#131319"/><stop offset="1" stop-color="#0c0c0e"/></linearGradient><linearGradient id="bevelGA" x1="0" y1="0" x2="0" y2="1"><stop offset="0" stop-color="#3d3d49"/><stop offset="1" stop-color="#20202b"/></linearGradient><linearGradient id="sheenGA" x1="0" y1="0" x2="0" y2="1"><stop offset="0" stop-color="#ffffff" stop-opacity="0.10"/><stop offset="1" stop-color="#ffffff" stop-opacity="0"/></linearGradient><linearGradient id="eyeGA" x1="0" y1="0" x2="0" y2="1"><stop offset="0" stop-color="#a99cff"/><stop offset="0.5" stop-color="#8b7bff"/><stop offset="1" stop-color="#5e46df"/></linearGradient><radialGradient id="hlGA" cx="50%" cy="50%" r="50%"><stop offset="0" stop-color="#ffffff" stop-opacity="0.92"/><stop offset="0.7" stop-color="#ffffff" stop-opacity="0.5"/><stop offset="1" stop-color="#ffffff" stop-opacity="0"/></radialGradient><filter id="softGA" x="-60%" y="-60%" width="220%" height="220%"><feGaussianBlur stdDeviation="4"/></filter><filter id="featherGA" x="-80%" y="-80%" width="260%" height="260%"><feGaussianBlur stdDeviation="1.1"/></filter></defs><circle cx="128" cy="120" r="132" fill="url(#glowGA)"/><rect x="98.0" y="180" width="20" height="32" rx="10" fill="#141419" stroke="url(#bevelGA)" stroke-width="2.5"/><rect x="138.0" y="180" width="20" height="32" rx="10" fill="#141419" stroke="url(#bevelGA)" stroke-width="2.5"/><rect x="56" y="50" width="144" height="144" rx="44" fill="url(#screenGA)" stroke="url(#bevelGA)" stroke-width="3"/><rect x="68" y="60" width="120" height="48" rx="26" fill="url(#sheenGA)"/><ellipse cx="128" cy="190" rx="60" ry="15" fill="#000" opacity="0.22" filter="url(#softGA)"/><rect x="87.0" y="94.0" width="34" height="46" rx="16" fill="url(#eyeGA)"/><path d="M92.0 133.0 q12.0 9 24 0" fill="none" stroke="#a99cff" stroke-width="2.4" opacity="0.45" filter="url(#featherGA)"/><circle cx="97" cy="106.0" r="7" fill="url(#hlGA)"/><circle cx="113" cy="127.0" r="2.6" fill="#ffffff" opacity="0.55"/><rect x="135.0" y="94.0" width="34" height="46" rx="16" fill="url(#eyeGA)"/><path d="M140.0 133.0 q12.0 9 24 0" fill="none" stroke="#a99cff" stroke-width="2.4" opacity="0.45" filter="url(#featherGA)"/><circle cx="145" cy="106.0" r="7" fill="url(#hlGA)"/><circle cx="161" cy="127.0" r="2.6" fill="#ffffff" opacity="0.55"/><ellipse cx="128" cy="152" rx="24" ry="8" fill="#7c6bff" opacity="0.14" filter="url(#softGA)"/><path d="M110 150 Q128 164 146 150" fill="none" stroke="#7c6bff" stroke-width="8" stroke-linecap="round"/></g><text x="314" y="232" font-family="JetBrains Mono, monospace" font-size="32" fill="#e8e8ed" text-anchor="start">munu</text><text x="314" y="262" font-family="JetBrains Mono, monospace" font-size="15" fill="#a0a0ab" text-anchor="start">the mini DockTerm — the workspace that woke up</text><text x="314" y="294" font-family="JetBrains Mono, monospace" font-size="14" fill="#6b6b76" text-anchor="start">· lives on the dark terminal tile</text><text x="314" y="318" font-family="JetBrains Mono, monospace" font-size="14" fill="#6b6b76" text-anchor="start">· violet only, from tokens.css</text><text x="314" y="342" font-family="JetBrains Mono, monospace" font-size="14" fill="#6b6b76" text-anchor="start">· its mouth is the shell cursor</text><text x="760" y="152" font-family="JetBrains Mono, monospace" font-size="14" fill="#6b6b76" text-anchor="start">construction · 256 grid</text><rect x="760" y="166" width="376" height="300" rx="14" fill="#131318" stroke="#26262e" stroke-width="1.5"/><g transform="translate(820,184) scale(1.0)"><defs><linearGradient id="screenGC" x1="0" y1="0" x2="0" y2="1"><stop offset="0" stop-color="#1b1b23"/><stop offset="0.5" stop-color="#131319"/><stop offset="1" stop-color="#0c0c0e"/></linearGradient><linearGradient id="bevelGC" x1="0" y1="0" x2="0" y2="1"><stop offset="0" stop-color="#3d3d49"/><stop offset="1" stop-color="#20202b"/></linearGradient><linearGradient id="sheenGC" x1="0" y1="0" x2="0" y2="1"><stop offset="0" stop-color="#ffffff" stop-opacity="0.10"/><stop offset="1" stop-color="#ffffff" stop-opacity="0"/></linearGradient><linearGradient id="eyeGC" x1="0" y1="0" x2="0" y2="1"><stop offset="0" stop-color="#a99cff"/><stop offset="0.5" stop-color="#8b7bff"/><stop offset="1" stop-color="#5e46df"/></linearGradient><radialGradient id="hlGC" cx="50%" cy="50%" r="50%"><stop offset="0" stop-color="#ffffff" stop-opacity="0.92"/><stop offset="0.7" stop-color="#ffffff" stop-opacity="0.5"/><stop offset="1" stop-color="#ffffff" stop-opacity="0"/></radialGradient><filter id="softGC" x="-60%" y="-60%" width="220%" height="220%"><feGaussianBlur stdDeviation="4"/></filter><filter id="featherGC" x="-80%" y="-80%" width="260%" height="260%"><feGaussianBlur stdDeviation="1.1"/></filter></defs><rect x="98.0" y="180" width="20" height="32" rx="10" fill="#141419" stroke="url(#bevelGC)" stroke-width="2.5"/><rect x="138.0" y="180" width="20" height="32" rx="10" fill="#141419" stroke="url(#bevelGC)" stroke-width="2.5"/><rect x="56" y="50" width="144" height="144" rx="44" fill="url(#screenGC)" stroke="url(#bevelGC)" stroke-width="3"/><rect x="68" y="60" width="120" height="48" rx="26" fill="url(#sheenGC)"/><ellipse cx="128" cy="190" rx="60" ry="15" fill="#000" opacity="0.22" filter="url(#softGC)"/><rect x="87.0" y="94.0" width="34" height="46" rx="16" fill="url(#eyeGC)"/><path d="M92.0 133.0 q12.0 9 24 0" fill="none" stroke="#a99cff" stroke-width="2.4" opacity="0.45" filter="url(#featherGC)"/><circle cx="97" cy="106.0" r="7" fill="url(#hlGC)"/><circle cx="113" cy="127.0" r="2.6" fill="#ffffff" opacity="0.55"/><rect x="135.0" y="94.0" width="34" height="46" rx="16" fill="url(#eyeGC)"/><path d="M140.0 133.0 q12.0 9 24 0" fill="none" stroke="#a99cff" stroke-width="2.4" opacity="0.45" filter="url(#featherGC)"/><circle cx="145" cy="106.0" r="7" fill="url(#hlGC)"/><circle cx="161" cy="127.0" r="2.6" fill="#ffffff" opacity="0.55"/><ellipse cx="128" cy="152" rx="24" ry="8" fill="#7c6bff" opacity="0.14" filter="url(#softGC)"/><path d="M110 150 Q128 164 146 150" fill="none" stroke="#7c6bff" stroke-width="8" stroke-linecap="round"/><rect x="56" y="50" width="144" height="144" rx="44" fill="none" stroke-dasharray="4 4" stroke="#fbbf24" stroke-width="1" opacity="0.5"/><line x1="128" y1="20" x2="128" y2="236" stroke-dasharray="3 5" stroke="#fbbf24" stroke-width="1" opacity="0.5"/><line x1="40" y1="117" x2="216" y2="117" stroke-dasharray="3 5" stroke="#fbbf24" stroke-width="1" opacity="0.5"/><circle cx="104" cy="117" r="3" fill="#fbbf24"/><circle cx="152" cy="117" r="3" fill="#fbbf24"/><line x1="40" y1="150" x2="216" y2="150" stroke-dasharray="3 5" stroke="#7c6bff" stroke-width="1" opacity="0.5"/></g><text x="780" y="452" font-family="JetBrains Mono, monospace" font-size="13" fill="#6b6b76" text-anchor="start">optical anchors locked across every expression</text><line x1="64" y1="496" x2="1136" y2="496" stroke="#26262e" stroke-width="1.5"/><text x="64" y="540" font-family="JetBrains Mono, monospace" font-size="14" fill="#6b6b76" text-anchor="start">expression system — munu mirrors what DockTerm is doing</text><g transform="translate(96.4,558) scale(0.45)"><defs><linearGradient id="screenE0" x1="0" y1="0" x2="0" y2="1"><stop offset="0" stop-color="#1b1b23"/><stop offset="0.5" stop-color="#131319"/><stop offset="1" stop-color="#0c0c0e"/></linearGradient><linearGradient id="bevelE0" x1="0" y1="0" x2="0" y2="1"><stop offset="0" stop-color="#3d3d49"/><stop offset="1" stop-color="#20202b"/></linearGradient><linearGradient id="sheenE0" x1="0" y1="0" x2="0" y2="1"><stop offset="0" stop-color="#ffffff" stop-opacity="0.10"/><stop offset="1" stop-color="#ffffff" stop-opacity="0"/></linearGradient><linearGradient id="eyeE0" x1="0" y1="0" x2="0" y2="1"><stop offset="0" stop-color="#a99cff"/><stop offset="0.5" stop-color="#8b7bff"/><stop offset="1" stop-color="#5e46df"/></linearGradient><radialGradient id="hlE0" cx="50%" cy="50%" r="50%"><stop offset="0" stop-color="#ffffff" stop-opacity="0.92"/><stop offset="0.7" stop-color="#ffffff" stop-opacity="0.5"/><stop offset="1" stop-color="#ffffff" stop-opacity="0"/></radialGradient><filter id="softE0" x="-60%" y="-60%" width="220%" height="220%"><feGaussianBlur stdDeviation="4"/></filter><filter id="featherE0" x="-80%" y="-80%" width="260%" height="260%"><feGaussianBlur stdDeviation="1.1"/></filter></defs><rect x="98.0" y="180" width="20" height="32" rx="10" fill="#141419" stroke="url(#bevelE0)" stroke-width="2.5"/><rect x="138.0" y="180" width="20" height="32" rx="10" fill="#141419" stroke="url(#bevelE0)" stroke-width="2.5"/><rect x="56" y="50" width="144" height="144" rx="44" fill="url(#screenE0)" stroke="url(#bevelE0)" stroke-width="3"/><rect x="68" y="60" width="120" height="48" rx="26" fill="url(#sheenE0)"/><ellipse cx="128" cy="190" rx="60" ry="15" fill="#000" opacity="0.22" filter="url(#softE0)"/><rect x="87.0" y="94.0" width="34" height="46" rx="16" fill="url(#eyeE0)"/><path d="M92.0 133.0 q12.0 9 24 0" fill="none" stroke="#a99cff" stroke-width="2.4" opacity="0.45" filter="url(#featherE0)"/><circle cx="97" cy="106.0" r="7" fill="url(#hlE0)"/><circle cx="113" cy="127.0" r="2.6" fill="#ffffff" opacity="0.55"/><rect x="135.0" y="94.0" width="34" height="46" rx="16" fill="url(#eyeE0)"/><path d="M140.0 133.0 q12.0 9 24 0" fill="none" stroke="#a99cff" stroke-width="2.4" opacity="0.45" filter="url(#featherE0)"/><circle cx="145" cy="106.0" r="7" fill="url(#hlE0)"/><circle cx="161" cy="127.0" r="2.6" fill="#ffffff" opacity="0.55"/><ellipse cx="128" cy="152" rx="24" ry="8" fill="#7c6bff" opacity="0.14" filter="url(#softE0)"/><path d="M110 150 Q128 164 146 150" fill="none" stroke="#7c6bff" stroke-width="8" stroke-linecap="round"/></g><text x="154" y="720" font-family="JetBrains Mono, monospace" font-size="16" fill="#e8e8ed" text-anchor="middle">resting</text><circle cx="108" cy="740" r="4" fill="#7c6bff"/><text x="162" y="744" font-family="JetBrains Mono, monospace" font-size="12" fill="#a0a0ab" text-anchor="middle">idle · ready</text><g transform="translate(306.4,558) scale(0.45)"><defs><linearGradient id="screenE1" x1="0" y1="0" x2="0" y2="1"><stop offset="0" stop-color="#1b1b23"/><stop offset="0.5" stop-color="#131319"/><stop offset="1" stop-color="#0c0c0e"/></linearGradient><linearGradient id="bevelE1" x1="0" y1="0" x2="0" y2="1"><stop offset="0" stop-color="#3d3d49"/><stop offset="1" stop-color="#20202b"/></linearGradient><linearGradient id="sheenE1" x1="0" y1="0" x2="0" y2="1"><stop offset="0" stop-color="#ffffff" stop-opacity="0.10"/><stop offset="1" stop-color="#ffffff" stop-opacity="0"/></linearGradient><linearGradient id="eyeE1" x1="0" y1="0" x2="0" y2="1"><stop offset="0" stop-color="#a99cff"/><stop offset="0.5" stop-color="#8b7bff"/><stop offset="1" stop-color="#5e46df"/></linearGradient><radialGradient id="hlE1" cx="50%" cy="50%" r="50%"><stop offset="0" stop-color="#ffffff" stop-opacity="0.92"/><stop offset="0.7" stop-color="#ffffff" stop-opacity="0.5"/><stop offset="1" stop-color="#ffffff" stop-opacity="0"/></radialGradient><filter id="softE1" x="-60%" y="-60%" width="220%" height="220%"><feGaussianBlur stdDeviation="4"/></filter><filter id="featherE1" x="-80%" y="-80%" width="260%" height="260%"><feGaussianBlur stdDeviation="1.1"/></filter></defs><rect x="98.0" y="180" width="20" height="32" rx="10" fill="#141419" stroke="url(#bevelE1)" stroke-width="2.5"/><rect x="138.0" y="180" width="20" height="32" rx="10" fill="#141419" stroke="url(#bevelE1)" stroke-width="2.5"/><rect x="56" y="50" width="144" height="144" rx="44" fill="url(#screenE1)" stroke="url(#bevelE1)" stroke-width="3"/><rect x="68" y="60" width="120" height="48" rx="26" fill="url(#sheenE1)"/><ellipse cx="128" cy="190" rx="60" ry="15" fill="#000" opacity="0.22" filter="url(#softE1)"/><path d="M80 75 C82.8 79.2 82.8 79.2 87 82 C82.8 84.8 82.8 84.8 80 89 C77.2 84.8 77.2 84.8 73 82 C77.2 79.2 77.2 79.2 80 75 Z" fill="#8d7dff"/><path d="M180 84.5 C182.2 87.8 182.2 87.8 185.5 90 C182.2 92.2 182.2 92.2 180 95.5 C177.8 92.2 177.8 92.2 174.5 90 C177.8 87.8 177.8 87.8 180 84.5 Z" fill="#a99cff"/><path d="M89 124 Q104 102 119 124" fill="none" stroke="#7c6bff" stroke-width="8" stroke-linecap="round"/><path d="M137 124 Q152 102 167 124" fill="none" stroke="#7c6bff" stroke-width="8" stroke-linecap="round"/><path d="M105 147 Q128 169 151 147" fill="none" stroke="#7c6bff" stroke-width="8.5" stroke-linecap="round"/></g><text x="364" y="720" font-family="JetBrains Mono, monospace" font-size="16" fill="#e8e8ed" text-anchor="middle">happy</text><circle cx="318" cy="740" r="4" fill="#4ade80"/><text x="372" y="744" font-family="JetBrains Mono, monospace" font-size="12" fill="#a0a0ab" text-anchor="middle">tree clean</text><g transform="translate(516.4,558) scale(0.45)"><defs><linearGradient id="screenE2" x1="0" y1="0" x2="0" y2="1"><stop offset="0" stop-color="#1b1b23"/><stop offset="0.5" stop-color="#131319"/><stop offset="1" stop-color="#0c0c0e"/></linearGradient><linearGradient id="bevelE2" x1="0" y1="0" x2="0" y2="1"><stop offset="0" stop-color="#3d3d49"/><stop offset="1" stop-color="#20202b"/></linearGradient><linearGradient id="sheenE2" x1="0" y1="0" x2="0" y2="1"><stop offset="0" stop-color="#ffffff" stop-opacity="0.10"/><stop offset="1" stop-color="#ffffff" stop-opacity="0"/></linearGradient><linearGradient id="eyeE2" x1="0" y1="0" x2="0" y2="1"><stop offset="0" stop-color="#a99cff"/><stop offset="0.5" stop-color="#8b7bff"/><stop offset="1" stop-color="#5e46df"/></linearGradient><radialGradient id="hlE2" cx="50%" cy="50%" r="50%"><stop offset="0" stop-color="#ffffff" stop-opacity="0.92"/><stop offset="0.7" stop-color="#ffffff" stop-opacity="0.5"/><stop offset="1" stop-color="#ffffff" stop-opacity="0"/></radialGradient><filter id="softE2" x="-60%" y="-60%" width="220%" height="220%"><feGaussianBlur stdDeviation="4"/></filter><filter id="featherE2" x="-80%" y="-80%" width="260%" height="260%"><feGaussianBlur stdDeviation="1.1"/></filter></defs><rect x="98.0" y="180" width="20" height="32" rx="10" fill="#141419" stroke="url(#bevelE2)" stroke-width="2.5"/><rect x="138.0" y="180" width="20" height="32" rx="10" fill="#141419" stroke="url(#bevelE2)" stroke-width="2.5"/><rect x="56" y="50" width="144" height="144" rx="44" fill="url(#screenE2)" stroke="url(#bevelE2)" stroke-width="3"/><rect x="68" y="60" width="120" height="48" rx="26" fill="url(#sheenE2)"/><ellipse cx="128" cy="190" rx="60" ry="15" fill="#000" opacity="0.22" filter="url(#softE2)"/><path d="M176 60.5 C179.0 65.0 179.0 65.0 183.5 68 C179.0 71.0 179.0 71.0 176 75.5 C173.0 71.0 173.0 71.0 168.5 68 C173.0 65.0 173.0 65.0 176 60.5 Z" fill="#8d7dff"/><rect x="87.0" y="96.5" width="34" height="41" rx="16" fill="url(#eyeE2)"/><path d="M92.0 130.5 q12.0 9 24 0" fill="none" stroke="#a99cff" stroke-width="2.4" opacity="0.45" filter="url(#featherE2)"/><circle cx="97" cy="108.5" r="7" fill="url(#hlE2)"/><circle cx="113" cy="124.5" r="2.6" fill="#ffffff" opacity="0.55"/><rect x="135.0" y="96.5" width="34" height="41" rx="16" fill="url(#eyeE2)"/><path d="M140.0 130.5 q12.0 9 24 0" fill="none" stroke="#a99cff" stroke-width="2.4" opacity="0.45" filter="url(#featherE2)"/><circle cx="145" cy="108.5" r="7" fill="url(#hlE2)"/><circle cx="161" cy="124.5" r="2.6" fill="#ffffff" opacity="0.55"/><ellipse cx="128" cy="151" rx="24" ry="8" fill="#7c6bff" opacity="0.14" filter="url(#softE2)"/><rect x="108" y="145" width="40" height="10" rx="5" fill="#7c6bff"><animate attributeName="opacity" values="1;1;1;1;0.1;1" keyTimes="0;0.55;0.7;0.78;0.86;1" dur="1.7s" repeatCount="indefinite"/></rect><circle cx="108" cy="173" r="4.6" fill="#a99cff"><animate attributeName="opacity" values="0.2;1;0.2" dur="1.5s" begin="0.0s" repeatCount="indefinite"/></circle><circle cx="128" cy="173" r="4.6" fill="#a99cff"><animate attributeName="opacity" values="0.2;1;0.2" dur="1.5s" begin="0.22s" repeatCount="indefinite"/></circle><circle cx="148" cy="173" r="4.6" fill="#a99cff"><animate attributeName="opacity" values="0.2;1;0.2" dur="1.5s" begin="0.44s" repeatCount="indefinite"/></circle></g><text x="574" y="720" font-family="JetBrains Mono, monospace" font-size="16" fill="#e8e8ed" text-anchor="middle">working</text><circle cx="528" cy="740" r="4" fill="#7c6bff"/><text x="582" y="744" font-family="JetBrains Mono, monospace" font-size="12" fill="#a0a0ab" text-anchor="middle">busy</text><g transform="translate(726.4,558) scale(0.45)"><defs><linearGradient id="screenE3" x1="0" y1="0" x2="0" y2="1"><stop offset="0" stop-color="#1b1b23"/><stop offset="0.5" stop-color="#131319"/><stop offset="1" stop-color="#0c0c0e"/></linearGradient><linearGradient id="bevelE3" x1="0" y1="0" x2="0" y2="1"><stop offset="0" stop-color="#3d3d49"/><stop offset="1" stop-color="#20202b"/></linearGradient><linearGradient id="sheenE3" x1="0" y1="0" x2="0" y2="1"><stop offset="0" stop-color="#ffffff" stop-opacity="0.10"/><stop offset="1" stop-color="#ffffff" stop-opacity="0"/></linearGradient><linearGradient id="eyeE3" x1="0" y1="0" x2="0" y2="1"><stop offset="0" stop-color="#a99cff"/><stop offset="0.5" stop-color="#8b7bff"/><stop offset="1" stop-color="#5e46df"/></linearGradient><radialGradient id="hlE3" cx="50%" cy="50%" r="50%"><stop offset="0" stop-color="#ffffff" stop-opacity="0.92"/><stop offset="0.7" stop-color="#ffffff" stop-opacity="0.5"/><stop offset="1" stop-color="#ffffff" stop-opacity="0"/></radialGradient><filter id="softE3" x="-60%" y="-60%" width="220%" height="220%"><feGaussianBlur stdDeviation="4"/></filter><filter id="featherE3" x="-80%" y="-80%" width="260%" height="260%"><feGaussianBlur stdDeviation="1.1"/></filter></defs><rect x="98.0" y="180" width="20" height="32" rx="10" fill="#141419" stroke="url(#bevelE3)" stroke-width="2.5"/><rect x="138.0" y="180" width="20" height="32" rx="10" fill="#141419" stroke="url(#bevelE3)" stroke-width="2.5"/><rect x="56" y="50" width="144" height="144" rx="44" fill="url(#screenE3)" stroke="url(#bevelE3)" stroke-width="3"/><rect x="68" y="60" width="120" height="48" rx="26" fill="url(#sheenE3)"/><ellipse cx="128" cy="190" rx="60" ry="15" fill="#000" opacity="0.22" filter="url(#softE3)"/><path d="M178 92 h12 l-12 13 h12" stroke-width="3.4" fill="none" stroke="#a99cff" stroke-linecap="round" stroke-linejoin="round"/><path d="M198 74 h9 l-9 10 h9" stroke-width="2.8" fill="none" stroke="#a99cff" stroke-linecap="round" stroke-linejoin="round" opacity="0.85"/><path d="M214 60 h7 l-7 8 h7" stroke-width="2.3" fill="none" stroke="#a99cff" stroke-linecap="round" stroke-linejoin="round" opacity="0.7"/><path d="M90 114 Q104 129 118 114" fill="none" stroke="#7c6bff" stroke-width="7" stroke-linecap="round"/><path d="M138 114 Q152 129 166 114" fill="none" stroke="#7c6bff" stroke-width="7" stroke-linecap="round"/><rect x="117" y="146" width="22" height="8" rx="4" fill="#7c6bff"/></g><text x="784" y="720" font-family="JetBrains Mono, monospace" font-size="16" fill="#e8e8ed" text-anchor="middle">sleeping</text><circle cx="738" cy="740" r="4" fill="#6b6b76"/><text x="792" y="744" font-family="JetBrains Mono, monospace" font-size="12" fill="#a0a0ab" text-anchor="middle">paused</text><g transform="translate(936.4,558) scale(0.45)"><defs><linearGradient id="screenE4" x1="0" y1="0" x2="0" y2="1"><stop offset="0" stop-color="#1b1b23"/><stop offset="0.5" stop-color="#131319"/><stop offset="1" stop-color="#0c0c0e"/></linearGradient><linearGradient id="bevelE4" x1="0" y1="0" x2="0" y2="1"><stop offset="0" stop-color="#3d3d49"/><stop offset="1" stop-color="#20202b"/></linearGradient><linearGradient id="sheenE4" x1="0" y1="0" x2="0" y2="1"><stop offset="0" stop-color="#ffffff" stop-opacity="0.10"/><stop offset="1" stop-color="#ffffff" stop-opacity="0"/></linearGradient><linearGradient id="eyeE4" x1="0" y1="0" x2="0" y2="1"><stop offset="0" stop-color="#a99cff"/><stop offset="0.5" stop-color="#8b7bff"/><stop offset="1" stop-color="#5e46df"/></linearGradient><radialGradient id="hlE4" cx="50%" cy="50%" r="50%"><stop offset="0" stop-color="#ffffff" stop-opacity="0.92"/><stop offset="0.7" stop-color="#ffffff" stop-opacity="0.5"/><stop offset="1" stop-color="#ffffff" stop-opacity="0"/></radialGradient><filter id="softE4" x="-60%" y="-60%" width="220%" height="220%"><feGaussianBlur stdDeviation="4"/></filter><filter id="featherE4" x="-80%" y="-80%" width="260%" height="260%"><feGaussianBlur stdDeviation="1.1"/></filter></defs><rect x="98.0" y="180" width="20" height="32" rx="10" fill="#141419" stroke="url(#bevelE4)" stroke-width="2.5"/><rect x="138.0" y="180" width="20" height="32" rx="10" fill="#141419" stroke="url(#bevelE4)" stroke-width="2.5"/><rect x="56" y="50" width="144" height="144" rx="44" fill="url(#screenE4)" stroke="url(#bevelE4)" stroke-width="3"/><rect x="68" y="60" width="120" height="48" rx="26" fill="url(#sheenE4)"/><ellipse cx="128" cy="190" rx="60" ry="15" fill="#000" opacity="0.22" filter="url(#softE4)"/><circle cx="128" cy="120" r="82" fill="none" stroke="#fbbf24" stroke-width="2.4" opacity="0"><animate attributeName="r" values="72;104" dur="2s" repeatCount="indefinite"/><animate attributeName="opacity" values="0.45;0" dur="2s" repeatCount="indefinite"/></circle><circle cx="128" cy="26" r="19" fill="#fbbf24" opacity="0.13" filter="url(#softE4)"/><path d="M8.09 -10.81 L7.86 -20.24 L12.46 -20.24 Q14.35 -20.24 15.45 -21.18 Q16.56 -22.12 16.56 -23.69 Q16.56 -25.30 15.43 -26.22 Q14.30 -27.14 12.42 -27.14 L4.83 -27.14 L4.83 -33.58 L11.96 -33.58 Q15.50 -33.58 18.08 -32.36 Q20.66 -31.14 22.06 -28.93 Q23.46 -26.72 23.46 -23.69 Q23.46 -20.79 22.26 -18.63 Q21.07 -16.47 18.90 -15.24 Q16.75 -14.03 13.84 -14.03 L13.84 -10.81 L8.09 -10.81 Z M10.31 0.23 Q8.74 0.23 7.80 -0.67 Q6.86 -1.57 6.86 -2.99 Q6.86 -4.46 7.80 -5.33 Q8.74 -6.21 10.31 -6.21 L11.69 -6.21 Q13.25 -6.21 14.19 -5.33 Q15.14 -4.46 15.14 -2.99 Q15.14 -1.52 14.19 -0.64 Q13.25 0.23 11.64 0.23 L10.31 0.23 Z" transform="translate(113.86,41.67)" fill="#fbbf24" fill-rule="evenodd"/><path d="M91 85.0 Q104 78.0 117 83.0" fill="none" stroke="#7c6bff" stroke-width="5" stroke-linecap="round"/><path d="M139 83.0 Q152 78.0 165 85.0" fill="none" stroke="#7c6bff" stroke-width="5" stroke-linecap="round"/><rect x="87.0" y="94.0" width="34" height="46" rx="16" fill="url(#eyeE4)"/><path d="M92.0 133.0 q12.0 9 24 0" fill="none" stroke="#a99cff" stroke-width="2.4" opacity="0.45" filter="url(#featherE4)"/><circle cx="97" cy="106.0" r="7" fill="url(#hlE4)"/><circle cx="113" cy="127.0" r="2.6" fill="#ffffff" opacity="0.55"/><rect x="135.0" y="94.0" width="34" height="46" rx="16" fill="url(#eyeE4)"/><path d="M140.0 133.0 q12.0 9 24 0" fill="none" stroke="#a99cff" stroke-width="2.4" opacity="0.45" filter="url(#featherE4)"/><circle cx="145" cy="106.0" r="7" fill="url(#hlE4)"/><circle cx="161" cy="127.0" r="2.6" fill="#ffffff" opacity="0.55"/><rect x="117" y="146" width="22" height="8" rx="4" fill="#7c6bff"/><rect x="92" y="220" width="72" height="26" rx="8" fill="#0c0c0e" stroke="#26262e" stroke-width="2"/><path d="M3.70 2.20 L3.70 -16.60 L9.30 -16.60 L9.30 -14.30 L6.20 -14.30 L6.20 -0.10 L9.30 -0.10 L9.30 2.20 L3.70 2.20 Z M15.30 3.60 L16.86 -0.60 L12.72 -11.00 L15.36 -11.00 L17.48 -5.38 Q17.66 -4.88 17.84 -4.29 Q18.02 -3.70 18.10 -3.20 Q18.16 -3.70 18.33 -4.29 Q18.50 -4.88 18.68 -5.38 L20.64 -11.00 L23.28 -11.00 L17.92 3.60 L15.30 3.60 Z M25.20 2.20 L32.20 -16.60 L34.80 -16.60 L27.80 2.20 L25.20 2.20 Z M37.54 -0.00 L37.54 -11.00 L39.98 -11.00 L39.98 -8.94 Q40.18 -9.98 40.96 -10.59 Q41.74 -11.20 42.94 -11.20 Q44.56 -11.20 45.53 -10.12 Q46.50 -9.04 46.50 -7.22 L46.50 -0.00 L44.00 -0.00 L44.00 -6.92 Q44.00 -7.94 43.47 -8.49 Q42.94 -9.04 42.04 -9.04 Q41.10 -9.04 40.57 -8.48 Q40.04 -7.92 40.04 -6.88 L40.04 -0.00 L37.54 -0.00 Z M50.70 2.20 L50.70 -0.10 L53.80 -0.10 L53.80 -14.30 L50.70 -14.30 L50.70 -16.60 L56.30 -16.60 L56.30 2.20 L50.70 2.20 Z" transform="translate(98.00,239.50)" fill="#a99cff" fill-rule="evenodd"/></g><text x="994" y="720" font-family="JetBrains Mono, monospace" font-size="16" fill="#e8e8ed" text-anchor="middle">asking</text><circle cx="948" cy="740" r="4" fill="#fbbf24"/><text x="1002" y="744" font-family="JetBrains Mono, monospace" font-size="12" fill="#a0a0ab" text-anchor="middle">needs [y/n]</text><line x1="64" y1="780" x2="1136" y2="780" stroke="#26262e" stroke-width="1.5"/><text x="64" y="820" font-family="JetBrains Mono, monospace" font-size="14" fill="#6b6b76" text-anchor="start">logo</text><defs><linearGradient id="screenGL" x1="0" y1="0" x2="0" y2="1"><stop offset="0" stop-color="#1b1b23"/><stop offset="0.5" stop-color="#131319"/><stop offset="1" stop-color="#0c0c0e"/></linearGradient><linearGradient id="bevelGL" x1="0" y1="0" x2="0" y2="1"><stop offset="0" stop-color="#3d3d49"/><stop offset="1" stop-color="#20202b"/></linearGradient><linearGradient id="sheenGL" x1="0" y1="0" x2="0" y2="1"><stop offset="0" stop-color="#ffffff" stop-opacity="0.10"/><stop offset="1" stop-color="#ffffff" stop-opacity="0"/></linearGradient><linearGradient id="eyeGL" x1="0" y1="0" x2="0" y2="1"><stop offset="0" stop-color="#a99cff"/><stop offset="0.5" stop-color="#8b7bff"/><stop offset="1" stop-color="#5e46df"/></linearGradient><radialGradient id="hlGL" cx="50%" cy="50%" r="50%"><stop offset="0" stop-color="#ffffff" stop-opacity="0.92"/><stop offset="0.7" stop-color="#ffffff" stop-opacity="0.5"/><stop offset="1" stop-color="#ffffff" stop-opacity="0"/></radialGradient><filter id="softGL" x="-60%" y="-60%" width="220%" height="220%"><feGaussianBlur stdDeviation="4"/></filter><filter id="featherGL" x="-80%" y="-80%" width="260%" height="260%"><feGaussianBlur stdDeviation="1.1"/></filter></defs><g transform="translate(78,850) scale(0.34)"><rect x="20" y="20" width="216" height="216" rx="52" fill="url(#screenGL)" stroke="url(#bevelGL)" stroke-width="4"/><rect x="36" y="32" width="184" height="60" rx="34" fill="url(#sheenGL)"/><ellipse cx="128" cy="206" rx="80" ry="16" fill="#000" opacity="0.20" filter="url(#softGL)"/><rect x="78" y="98" width="44" height="58" rx="20" fill="url(#eyeGL)"/><circle cx="91" cy="113" r="9" fill="url(#hlGL)"/><circle cx="111" cy="141" r="3.2" fill="#ffffff" opacity="0.55"/><rect x="134" y="98" width="44" height="58" rx="20" fill="url(#eyeGL)"/><circle cx="147" cy="113" r="9" fill="url(#hlGL)"/><circle cx="167" cy="141" r="3.2" fill="#ffffff" opacity="0.55"/><ellipse cx="128" cy="167" rx="32" ry="10" fill="#7c6bff" opacity="0.14" filter="url(#softGL)"/><rect x="99" y="160" width="58" height="15" rx="7.5" fill="#7c6bff"/></g><path d="M3.40 -0.00 L3.40 -39.42 L16.20 -39.42 Q20.30 -39.42 23.36 -37.85 Q26.41 -36.29 28.11 -33.45 Q29.81 -30.62 29.81 -26.78 L29.81 -12.69 Q29.81 -8.91 28.11 -6.05 Q26.41 -3.19 23.36 -1.59 Q20.30 -0.00 16.20 -0.00 L3.40 -0.00 Z M11.50 -7.29 L16.20 -7.29 Q18.63 -7.29 20.17 -8.80 Q21.71 -10.31 21.71 -12.69 L21.71 -26.78 Q21.71 -29.16 20.17 -30.65 Q18.63 -32.13 16.20 -32.13 L11.50 -32.13 L11.50 -7.29 Z M48.60 0.54 Q44.66 0.54 41.74 -0.95 Q38.83 -2.43 37.23 -5.10 Q35.64 -7.78 35.64 -11.34 L35.64 -18.36 Q35.64 -21.92 37.23 -24.60 Q38.83 -27.27 41.74 -28.76 Q44.66 -30.24 48.60 -30.24 Q52.60 -30.24 55.48 -28.76 Q58.37 -27.27 59.97 -24.60 Q61.56 -21.92 61.56 -18.36 L61.56 -11.34 Q61.56 -7.78 59.97 -5.10 Q58.37 -2.43 55.48 -0.95 Q52.60 0.54 48.60 0.54 Z M48.60 -6.48 Q50.98 -6.48 52.22 -7.75 Q53.46 -9.02 53.46 -11.34 L53.46 -18.36 Q53.46 -20.74 52.22 -21.98 Q50.98 -23.22 48.60 -23.22 Q46.28 -23.22 45.01 -21.98 Q43.74 -20.74 43.74 -18.36 L43.74 -11.34 Q43.74 -9.02 45.01 -7.75 Q46.28 -6.48 48.60 -6.48 Z M81.49 0.54 Q77.54 0.54 74.57 -0.95 Q71.60 -2.43 69.98 -5.10 Q68.36 -7.78 68.36 -11.34 L68.36 -18.36 Q68.36 -21.98 69.98 -24.62 Q71.60 -27.27 74.57 -28.76 Q77.54 -30.24 81.49 -30.24 Q87.37 -30.24 90.88 -27.27 Q94.39 -24.30 94.61 -19.17 L86.72 -19.17 Q86.56 -21.06 85.13 -22.14 Q83.70 -23.22 81.49 -23.22 Q79.06 -23.22 77.76 -21.98 Q76.46 -20.74 76.46 -18.36 L76.46 -11.34 Q76.46 -9.02 77.76 -7.75 Q79.06 -6.48 81.49 -6.48 Q83.70 -6.48 85.13 -7.53 Q86.56 -8.59 86.72 -10.53 L94.61 -10.53 Q94.39 -5.40 90.88 -2.43 Q87.37 0.54 81.49 0.54 Z M101.03 -0.00 L101.03 -39.42 L109.13 -39.42 L109.13 -18.47 L113.24 -18.47 L119.45 -29.70 L128.36 -29.70 L120.10 -15.17 L128.52 -0.00 L119.45 -0.00 L113.18 -11.66 L109.13 -11.66 L109.13 -0.00 L101.03 -0.00 Z M141.75 -0.00 L141.75 -32.13 L131.76 -32.13 L131.76 -39.42 L159.84 -39.42 L159.84 -32.13 L149.85 -32.13 L149.85 -0.00 L141.75 -0.00 Z M178.25 0.54 Q174.31 0.54 171.37 -0.95 Q168.43 -2.43 166.83 -5.10 Q165.24 -7.78 165.24 -11.34 L165.24 -18.36 Q165.24 -21.92 166.83 -24.60 Q168.43 -27.27 171.37 -28.76 Q174.31 -30.24 178.25 -30.24 Q182.20 -30.24 185.08 -28.76 Q187.97 -27.27 189.57 -24.60 Q191.16 -21.92 191.16 -18.36 L191.16 -12.85 L172.96 -12.85 L172.96 -11.34 Q172.96 -8.53 174.28 -7.23 Q175.61 -5.94 178.25 -5.94 Q179.98 -5.94 181.27 -6.48 Q182.57 -7.02 182.79 -8.10 L190.73 -8.10 Q189.86 -4.21 186.46 -1.83 Q183.06 0.54 178.25 0.54 Z M172.96 -18.36 L172.96 -17.66 L183.44 -17.77 L183.44 -18.47 Q183.44 -21.22 182.17 -22.73 Q180.90 -24.25 178.25 -24.25 Q175.61 -24.25 174.28 -22.68 Q172.96 -21.11 172.96 -18.36 Z M199.04 -0.00 L199.04 -29.70 L206.87 -29.70 L206.87 -24.08 Q207.52 -26.95 209.71 -28.59 Q211.90 -30.24 215.19 -30.24 Q219.67 -30.24 222.21 -27.21 Q224.75 -24.19 224.75 -18.90 L224.75 -15.93 L216.65 -15.93 L216.65 -18.36 Q216.65 -20.68 215.40 -21.95 Q214.16 -23.22 211.90 -23.22 Q209.63 -23.22 208.38 -21.79 Q207.14 -20.36 207.14 -17.71 L207.14 -0.00 L199.04 -0.00 Z M228.85 -0.00 L228.85 -29.70 L235.49 -29.70 L235.49 -25.11 L235.60 -25.11 Q235.76 -27.38 237.11 -28.81 Q238.46 -30.24 240.57 -30.24 Q242.51 -30.24 243.94 -28.86 Q245.38 -27.49 245.81 -25.27 Q245.97 -27.54 247.37 -28.89 Q248.78 -30.24 250.88 -30.24 Q253.53 -30.24 255.34 -28.13 Q257.15 -26.03 257.15 -22.68 L257.15 -0.00 L250.18 -0.00 L250.18 -21.76 Q250.18 -24.35 248.13 -24.35 Q246.19 -24.35 246.19 -21.76 L246.19 -0.00 L239.81 -0.00 L239.81 -21.76 Q239.81 -24.35 237.87 -24.35 Q235.82 -24.35 235.82 -21.76 L235.82 -0.00 L228.85 -0.00 Z" transform="translate(177.64,912)" fill="#e8e8ed" fill-rule="evenodd"/><rect x="446.8" y="870" width="14" height="44" rx="4" fill="#7c6bff"/><rect x="58" y="842" width="398.78931732177733" height="96" rx="6" fill="none" stroke="#6b6b76" stroke-dasharray="5 5" stroke-width="1"/><text x="64" y="956" font-family="JetBrains Mono, monospace" font-size="12" fill="#6b6b76" text-anchor="start">clear space = ½ mark height</text><text x="820" y="820" font-family="JetBrains Mono, monospace" font-size="14" fill="#6b6b76" text-anchor="start">minimum size</text><g transform="translate(820,844)"><rect x="0" y="0" width="64" height="64" rx="15.36" fill="#0c0c0e" stroke="#26262e" stroke-width="1"/></g><g transform="translate(820,844) scale(0.25)"><defs><linearGradient id="screenM0" x1="0" y1="0" x2="0" y2="1"><stop offset="0" stop-color="#1b1b23"/><stop offset="0.5" stop-color="#131319"/><stop offset="1" stop-color="#0c0c0e"/></linearGradient><linearGradient id="bevelM0" x1="0" y1="0" x2="0" y2="1"><stop offset="0" stop-color="#3d3d49"/><stop offset="1" stop-color="#20202b"/></linearGradient><linearGradient id="sheenM0" x1="0" y1="0" x2="0" y2="1"><stop offset="0" stop-color="#ffffff" stop-opacity="0.10"/><stop offset="1" stop-color="#ffffff" stop-opacity="0"/></linearGradient><linearGradient id="eyeM0" x1="0" y1="0" x2="0" y2="1"><stop offset="0" stop-color="#a99cff"/><stop offset="0.5" stop-color="#8b7bff"/><stop offset="1" stop-color="#5e46df"/></linearGradient><radialGradient id="hlM0" cx="50%" cy="50%" r="50%"><stop offset="0" stop-color="#ffffff" stop-opacity="0.92"/><stop offset="0.7" stop-color="#ffffff" stop-opacity="0.5"/><stop offset="1" stop-color="#ffffff" stop-opacity="0"/></radialGradient><filter id="softM0" x="-60%" y="-60%" width="220%" height="220%"><feGaussianBlur stdDeviation="4"/></filter><filter id="featherM0" x="-80%" y="-80%" width="260%" height="260%"><feGaussianBlur stdDeviation="1.1"/></filter></defs><rect x="20" y="20" width="216" height="216" rx="52" fill="url(#screenM0)" stroke="url(#bevelM0)" stroke-width="4"/><rect x="36" y="32" width="184" height="60" rx="34" fill="url(#sheenM0)"/><ellipse cx="128" cy="206" rx="80" ry="16" fill="#000" opacity="0.20" filter="url(#softM0)"/><rect x="78" y="98" width="44" height="58" rx="20" fill="url(#eyeM0)"/><circle cx="91" cy="113" r="9" fill="url(#hlM0)"/><circle cx="111" cy="141" r="3.2" fill="#ffffff" opacity="0.55"/><rect x="134" y="98" width="44" height="58" rx="20" fill="url(#eyeM0)"/><circle cx="147" cy="113" r="9" fill="url(#hlM0)"/><circle cx="167" cy="141" r="3.2" fill="#ffffff" opacity="0.55"/><ellipse cx="128" cy="167" rx="32" ry="10" fill="#7c6bff" opacity="0.14" filter="url(#softM0)"/><rect x="99" y="160" width="58" height="15" rx="7.5" fill="#7c6bff"/></g><text x="852.0" y="926" font-family="JetBrains Mono, monospace" font-size="12" fill="#6b6b76" text-anchor="middle">64</text><g transform="translate(936,844)"><rect x="0" y="0" width="40" height="40" rx="9.6" fill="#0c0c0e" stroke="#26262e" stroke-width="1"/></g><g transform="translate(936,844) scale(0.15625)"><defs><linearGradient id="screenM1" x1="0" y1="0" x2="0" y2="1"><stop offset="0" stop-color="#1b1b23"/><stop offset="0.5" stop-color="#131319"/><stop offset="1" stop-color="#0c0c0e"/></linearGradient><linearGradient id="bevelM1" x1="0" y1="0" x2="0" y2="1"><stop offset="0" stop-color="#3d3d49"/><stop offset="1" stop-color="#20202b"/></linearGradient><linearGradient id="sheenM1" x1="0" y1="0" x2="0" y2="1"><stop offset="0" stop-color="#ffffff" stop-opacity="0.10"/><stop offset="1" stop-color="#ffffff" stop-opacity="0"/></linearGradient><linearGradient id="eyeM1" x1="0" y1="0" x2="0" y2="1"><stop offset="0" stop-color="#a99cff"/><stop offset="0.5" stop-color="#8b7bff"/><stop offset="1" stop-color="#5e46df"/></linearGradient><radialGradient id="hlM1" cx="50%" cy="50%" r="50%"><stop offset="0" stop-color="#ffffff" stop-opacity="0.92"/><stop offset="0.7" stop-color="#ffffff" stop-opacity="0.5"/><stop offset="1" stop-color="#ffffff" stop-opacity="0"/></radialGradient><filter id="softM1" x="-60%" y="-60%" width="220%" height="220%"><feGaussianBlur stdDeviation="4"/></filter><filter id="featherM1" x="-80%" y="-80%" width="260%" height="260%"><feGaussianBlur stdDeviation="1.1"/></filter></defs><rect x="20" y="20" width="216" height="216" rx="52" fill="url(#screenM1)" stroke="url(#bevelM1)" stroke-width="4"/><rect x="36" y="32" width="184" height="60" rx="34" fill="url(#sheenM1)"/><ellipse cx="128" cy="206" rx="80" ry="16" fill="#000" opacity="0.20" filter="url(#softM1)"/><rect x="78" y="98" width="44" height="58" rx="20" fill="url(#eyeM1)"/><circle cx="91" cy="113" r="9" fill="url(#hlM1)"/><circle cx="111" cy="141" r="3.2" fill="#ffffff" opacity="0.55"/><rect x="134" y="98" width="44" height="58" rx="20" fill="url(#eyeM1)"/><circle cx="147" cy="113" r="9" fill="url(#hlM1)"/><circle cx="167" cy="141" r="3.2" fill="#ffffff" opacity="0.55"/><ellipse cx="128" cy="167" rx="32" ry="10" fill="#7c6bff" opacity="0.14" filter="url(#softM1)"/><rect x="99" y="160" width="58" height="15" rx="7.5" fill="#7c6bff"/></g><text x="956.0" y="902" font-family="JetBrains Mono, monospace" font-size="12" fill="#6b6b76" text-anchor="middle">40</text><g transform="translate(1052,844)"><rect x="0" y="0" width="24" height="24" rx="5.76" fill="#0c0c0e" stroke="#26262e" stroke-width="1"/></g><g transform="translate(1052,844) scale(0.09375)"><defs><linearGradient id="screenM2" x1="0" y1="0" x2="0" y2="1"><stop offset="0" stop-color="#1b1b23"/><stop offset="0.5" stop-color="#131319"/><stop offset="1" stop-color="#0c0c0e"/></linearGradient><linearGradient id="bevelM2" x1="0" y1="0" x2="0" y2="1"><stop offset="0" stop-color="#3d3d49"/><stop offset="1" stop-color="#20202b"/></linearGradient><linearGradient id="sheenM2" x1="0" y1="0" x2="0" y2="1"><stop offset="0" stop-color="#ffffff" stop-opacity="0.10"/><stop offset="1" stop-color="#ffffff" stop-opacity="0"/></linearGradient><linearGradient id="eyeM2" x1="0" y1="0" x2="0" y2="1"><stop offset="0" stop-color="#a99cff"/><stop offset="0.5" stop-color="#8b7bff"/><stop offset="1" stop-color="#5e46df"/></linearGradient><radialGradient id="hlM2" cx="50%" cy="50%" r="50%"><stop offset="0" stop-color="#ffffff" stop-opacity="0.92"/><stop offset="0.7" stop-color="#ffffff" stop-opacity="0.5"/><stop offset="1" stop-color="#ffffff" stop-opacity="0"/></radialGradient><filter id="softM2" x="-60%" y="-60%" width="220%" height="220%"><feGaussianBlur stdDeviation="4"/></filter><filter id="featherM2" x="-80%" y="-80%" width="260%" height="260%"><feGaussianBlur stdDeviation="1.1"/></filter></defs><rect x="20" y="20" width="216" height="216" rx="52" fill="url(#screenM2)" stroke="url(#bevelM2)" stroke-width="4"/><rect x="36" y="32" width="184" height="60" rx="34" fill="url(#sheenM2)"/><ellipse cx="128" cy="206" rx="80" ry="16" fill="#000" opacity="0.20" filter="url(#softM2)"/><rect x="78" y="98" width="44" height="58" rx="20" fill="url(#eyeM2)"/><circle cx="91" cy="113" r="9" fill="url(#hlM2)"/><circle cx="111" cy="141" r="3.2" fill="#ffffff" opacity="0.55"/><rect x="134" y="98" width="44" height="58" rx="20" fill="url(#eyeM2)"/><circle cx="147" cy="113" r="9" fill="url(#hlM2)"/><circle cx="167" cy="141" r="3.2" fill="#ffffff" opacity="0.55"/><ellipse cx="128" cy="167" rx="32" ry="10" fill="#7c6bff" opacity="0.14" filter="url(#softM2)"/><rect x="99" y="160" width="58" height="15" rx="7.5" fill="#7c6bff"/></g><text x="1064.0" y="886" font-family="JetBrains Mono, monospace" font-size="12" fill="#6b6b76" text-anchor="middle">24 min</text><line x1="64" y1="1000" x2="1136" y2="1000" stroke="#26262e" stroke-width="1.5"/><text x="64" y="1040" font-family="JetBrains Mono, monospace" font-size="14" fill="#6b6b76" text-anchor="start">palette — DockTerm Dark · tokens.css</text><rect x="64" y="1058" width="124" height="54" rx="10" fill="#7c6bff" stroke="#26262e" stroke-width="1"/><text x="76" y="1084" font-family="JetBrains Mono, monospace" font-size="12.5" fill="#e8e8ed" text-anchor="start">#7c6bff</text><text x="64" y="1132" font-family="JetBrains Mono, monospace" font-size="12" fill="#e8e8ed" text-anchor="start">accent</text><text x="64" y="1150" font-family="JetBrains Mono, monospace" font-size="11" fill="#6b6b76" text-anchor="start">--accent</text><rect x="196" y="1058" width="124" height="54" rx="10" fill="#8d7dff" stroke="#26262e" stroke-width="1"/><text x="208" y="1084" font-family="JetBrains Mono, monospace" font-size="12.5" fill="#0d0d0f" text-anchor="start">#8d7dff</text><text x="196" y="1132" font-family="JetBrains Mono, monospace" font-size="12" fill="#e8e8ed" text-anchor="start">hover</text><text x="196" y="1150" font-family="JetBrains Mono, monospace" font-size="11" fill="#6b6b76" text-anchor="start">--accent-hover</text><rect x="328" y="1058" width="124" height="54" rx="10" fill="#5e46df" stroke="#26262e" stroke-width="1"/><text x="340" y="1084" font-family="JetBrains Mono, monospace" font-size="12.5" fill="#e8e8ed" text-anchor="start">#5e46df</text><text x="328" y="1132" font-family="JetBrains Mono, monospace" font-size="12" fill="#e8e8ed" text-anchor="start">deep</text><text x="328" y="1150" font-family="JetBrains Mono, monospace" font-size="11" fill="#6b6b76" text-anchor="start">eye base</text><rect x="460" y="1058" width="124" height="54" rx="10" fill="#fbbf24" stroke="#26262e" stroke-width="1"/><text x="472" y="1084" font-family="JetBrains Mono, monospace" font-size="12.5" fill="#0d0d0f" text-anchor="start">#fbbf24</text><text x="460" y="1132" font-family="JetBrains Mono, monospace" font-size="12" fill="#e8e8ed" text-anchor="start">attention</text><text x="460" y="1150" font-family="JetBrains Mono, monospace" font-size="11" fill="#6b6b76" text-anchor="start">--warning</text><rect x="592" y="1058" width="124" height="54" rx="10" fill="#4ade80" stroke="#26262e" stroke-width="1"/><text x="604" y="1084" font-family="JetBrains Mono, monospace" font-size="12.5" fill="#0d0d0f" text-anchor="start">#4ade80</text><text x="592" y="1132" font-family="JetBrains Mono, monospace" font-size="12" fill="#e8e8ed" text-anchor="start">clean</text><text x="592" y="1150" font-family="JetBrains Mono, monospace" font-size="11" fill="#6b6b76" text-anchor="start">--success</text><rect x="724" y="1058" width="124" height="54" rx="10" fill="#0d0d0f" stroke="#26262e" stroke-width="1"/><text x="736" y="1084" font-family="JetBrains Mono, monospace" font-size="12.5" fill="#e8e8ed" text-anchor="start">#0d0d0f</text><text x="724" y="1132" font-family="JetBrains Mono, monospace" font-size="12" fill="#e8e8ed" text-anchor="start">shell</text><text x="724" y="1150" font-family="JetBrains Mono, monospace" font-size="11" fill="#6b6b76" text-anchor="start">--bg</text><rect x="856" y="1058" width="124" height="54" rx="10" fill="#1a1a21" stroke="#26262e" stroke-width="1"/><text x="868" y="1084" font-family="JetBrains Mono, monospace" font-size="12.5" fill="#e8e8ed" text-anchor="start">#1a1a21</text><text x="856" y="1132" font-family="JetBrains Mono, monospace" font-size="12" fill="#e8e8ed" text-anchor="start">raised</text><text x="856" y="1150" font-family="JetBrains Mono, monospace" font-size="11" fill="#6b6b76" text-anchor="start">--raised</text><rect x="988" y="1058" width="124" height="54" rx="10" fill="#e8e8ed" stroke="#26262e" stroke-width="1"/><text x="1000" y="1084" font-family="JetBrains Mono, monospace" font-size="12.5" fill="#0d0d0f" text-anchor="start">#e8e8ed</text><text x="988" y="1132" font-family="JetBrains Mono, monospace" font-size="12" fill="#e8e8ed" text-anchor="start">text</text><text x="988" y="1150" font-family="JetBrains Mono, monospace" font-size="11" fill="#6b6b76" text-anchor="start">--text</text><line x1="64" y1="1180" x2="1136" y2="1180" stroke="#26262e" stroke-width="1.5"/><text x="64" y="1220" font-family="JetBrains Mono, monospace" font-size="14" fill="#6b6b76" text-anchor="start">typography — JetBrains Mono</text><path d="M14.04 0.52 Q8.06 0.52 4.55 -2.73 Q1.04 -5.98 1.04 -11.49 L8.84 -11.49 Q8.84 -9.10 10.25 -7.67 Q11.65 -6.24 14.04 -6.24 Q16.43 -6.24 17.83 -7.61 Q19.24 -8.99 19.24 -11.39 L19.24 -37.96 L27.04 -37.96 L27.04 -11.39 Q27.04 -5.87 23.55 -2.67 Q20.07 0.52 14.04 0.52 Z M46.85 0.52 Q43.05 0.52 40.22 -0.91 Q37.39 -2.34 35.86 -4.92 Q34.32 -7.49 34.32 -10.92 L34.32 -17.68 Q34.32 -21.11 35.86 -23.68 Q37.39 -26.26 40.22 -27.69 Q43.05 -29.12 46.85 -29.12 Q50.65 -29.12 53.43 -27.69 Q56.21 -26.26 57.74 -23.68 Q59.28 -21.11 59.28 -17.68 L59.28 -12.37 L41.75 -12.37 L41.75 -10.92 Q41.75 -8.21 43.03 -6.96 Q44.31 -5.72 46.85 -5.72 Q48.51 -5.72 49.76 -6.24 Q51.01 -6.76 51.22 -7.80 L58.87 -7.80 Q58.03 -4.05 54.75 -1.76 Q51.48 0.52 46.85 0.52 Z M41.75 -17.68 L41.75 -17.01 L51.85 -17.11 L51.85 -17.79 Q51.85 -20.43 50.62 -21.89 Q49.40 -23.35 46.85 -23.35 Q44.31 -23.35 43.03 -21.84 Q41.75 -20.33 41.75 -17.68 Z M80.86 -0.00 Q76.49 -0.00 73.99 -2.49 Q71.50 -4.99 71.50 -9.36 L71.50 -21.58 L63.81 -21.58 L63.81 -28.60 L71.50 -28.60 L71.50 -36.66 L79.30 -36.66 L79.30 -28.60 L90.48 -28.60 L90.48 -21.58 L79.30 -21.58 L79.30 -9.62 Q79.30 -8.47 79.89 -7.74 Q80.49 -7.02 81.64 -7.02 L90.22 -7.02 L90.22 -0.00 L80.86 -0.00 Z M97.03 -0.00 L97.03 -37.96 L109.25 -37.96 Q113.05 -37.96 115.88 -36.73 Q118.71 -35.51 120.30 -33.33 Q121.89 -31.15 121.89 -28.19 Q121.89 -24.96 120.12 -22.80 Q118.35 -20.65 115.55 -20.23 L115.55 -20.13 Q117.67 -19.91 119.31 -18.64 Q120.95 -17.37 121.86 -15.39 Q122.77 -13.41 122.77 -10.97 Q122.77 -7.69 121.13 -5.22 Q119.49 -2.75 116.55 -1.37 Q113.62 -0.00 109.72 -0.00 L97.03 -0.00 Z M104.57 -22.67 L109.15 -22.67 Q111.43 -22.67 112.73 -23.89 Q114.03 -25.11 114.03 -27.19 Q114.03 -29.33 112.73 -30.50 Q111.43 -31.67 109.15 -31.67 L104.57 -31.67 L104.57 -22.67 Z M104.57 -6.29 L109.46 -6.29 Q112.01 -6.29 113.47 -7.64 Q114.92 -8.99 114.92 -11.39 Q114.92 -13.78 113.47 -15.15 Q112.01 -16.53 109.46 -16.53 L104.57 -16.53 L104.57 -6.29 Z M129.27 -0.00 L129.27 -28.60 L136.81 -28.60 L136.81 -23.19 Q137.43 -25.95 139.54 -27.54 Q141.65 -29.12 144.82 -29.12 Q149.13 -29.12 151.58 -26.20 Q154.03 -23.29 154.03 -18.20 L154.03 -15.34 L146.23 -15.34 L146.23 -17.68 Q146.23 -19.91 145.02 -21.13 Q143.83 -22.36 141.65 -22.36 Q139.47 -22.36 138.26 -20.98 Q137.07 -19.61 137.07 -17.05 L137.07 -0.00 L129.27 -0.00 Z M167.91 0.52 Q163.65 0.52 161.14 -1.95 Q158.65 -4.42 158.65 -8.43 Q158.65 -12.74 161.72 -15.23 Q164.79 -17.73 170.35 -17.73 L175.97 -17.73 L175.97 -19.55 Q175.97 -21.17 174.85 -22.08 Q173.73 -22.99 171.65 -22.99 Q169.67 -22.99 168.50 -22.21 Q167.33 -21.43 167.23 -19.91 L159.85 -19.91 Q160.01 -24.13 163.17 -26.63 Q166.35 -29.12 171.75 -29.12 Q177.43 -29.12 180.59 -26.52 Q183.77 -23.92 183.77 -19.24 L183.77 -0.00 L176.23 -0.00 L176.23 -4.94 Q175.71 -2.39 173.50 -0.93 Q171.29 0.52 167.91 0.52 Z M170.67 -5.72 Q173.11 -5.72 174.54 -6.94 Q175.97 -8.17 175.97 -10.14 L175.97 -13.05 L170.51 -13.05 Q168.43 -13.05 167.31 -12.03 Q166.19 -11.03 166.19 -9.41 Q166.19 -7.80 167.36 -6.76 Q168.53 -5.72 170.67 -5.72 Z M190.84 -0.00 L190.84 -7.02 L200.31 -7.02 L200.31 -21.58 L191.88 -21.58 L191.88 -28.60 L208.11 -28.60 L208.11 -7.02 L216.32 -7.02 L216.32 -0.00 L190.84 -0.00 Z M203.84 -33.13 Q201.71 -33.13 200.44 -34.21 Q199.16 -35.31 199.16 -37.18 Q199.16 -39.05 200.44 -40.14 Q201.71 -41.23 203.84 -41.23 Q205.97 -41.23 207.24 -40.14 Q208.52 -39.05 208.52 -37.18 Q208.52 -35.31 207.24 -34.21 Q205.97 -33.13 203.84 -33.13 Z M221.83 -0.00 L221.83 -28.60 L229.37 -28.60 L229.37 -23.40 Q229.99 -26.00 232.05 -27.56 Q234.11 -29.12 237.07 -29.12 Q241.23 -29.12 243.75 -26.20 Q246.27 -23.29 246.27 -18.46 L246.27 -0.00 L238.47 -0.00 L238.47 -17.68 Q238.47 -19.91 237.30 -21.13 Q236.13 -22.36 234.05 -22.36 Q231.97 -22.36 230.80 -21.13 Q229.63 -19.91 229.63 -17.68 L229.63 -0.00 L221.83 -0.00 Z M264.01 0.52 Q260.47 0.52 257.81 -0.59 Q255.17 -1.71 253.68 -3.69 Q252.20 -5.67 252.20 -8.32 L259.85 -8.32 Q259.85 -6.87 260.93 -6.13 Q262.03 -5.41 264.01 -5.41 L266.29 -5.41 Q268.43 -5.41 269.60 -6.13 Q270.77 -6.87 270.77 -8.21 Q270.77 -9.51 269.82 -10.11 Q268.89 -10.71 266.97 -10.92 L260.41 -11.70 Q256.62 -12.17 254.59 -14.54 Q252.57 -16.90 252.57 -20.43 Q252.57 -29.12 263.69 -29.12 L266.13 -29.12 Q271.39 -29.12 274.51 -26.83 Q277.63 -24.55 277.63 -20.69 L269.99 -20.69 Q269.99 -21.95 268.97 -22.62 Q267.95 -23.29 266.13 -23.29 L263.69 -23.29 Q261.87 -23.29 260.93 -22.62 Q260.00 -21.95 260.00 -20.75 Q260.00 -19.55 260.91 -19.13 Q261.82 -18.72 263.49 -18.51 L269.73 -17.73 Q273.93 -17.21 276.06 -14.76 Q278.20 -12.33 278.20 -8.32 Q278.20 -4.11 275.19 -1.80 Q272.17 0.52 266.29 0.52 L264.01 0.52 Z M314.19 -0.00 L314.19 -37.96 L323.70 -37.96 L327.55 -21.73 L331.39 -37.96 L341.01 -37.96 L341.01 -0.00 L333.89 -0.00 L333.89 -14.56 Q333.89 -20.28 334.38 -25.55 Q334.88 -30.83 335.40 -34.84 L330.61 -16.12 L324.37 -16.12 L319.69 -34.37 Q320.21 -30.99 320.76 -25.76 Q321.31 -20.54 321.31 -14.56 L321.31 -0.00 L314.19 -0.00 Z M358.80 0.52 Q355.01 0.52 352.19 -0.91 Q349.39 -2.34 347.86 -4.92 Q346.32 -7.49 346.32 -10.92 L346.32 -17.68 Q346.32 -21.11 347.86 -23.68 Q349.39 -26.26 352.19 -27.69 Q355.01 -29.12 358.80 -29.12 Q362.65 -29.12 365.43 -27.69 Q368.21 -26.26 369.74 -23.68 Q371.28 -21.11 371.28 -17.68 L371.28 -10.92 Q371.28 -7.49 369.74 -4.92 Q368.21 -2.34 365.43 -0.91 Q362.65 0.52 358.80 0.52 Z M358.80 -6.24 Q361.09 -6.24 362.29 -7.46 Q363.48 -8.69 363.48 -10.92 L363.48 -17.68 Q363.48 -19.97 362.29 -21.17 Q361.09 -22.36 358.80 -22.36 Q356.57 -22.36 355.34 -21.17 Q354.12 -19.97 354.12 -17.68 L354.12 -10.92 Q354.12 -8.69 355.34 -7.46 Q356.57 -6.24 358.80 -6.24 Z M377.83 -0.00 L377.83 -28.60 L385.37 -28.60 L385.37 -23.40 Q385.99 -26.00 388.05 -27.56 Q390.11 -29.12 393.07 -29.12 Q397.23 -29.12 399.75 -26.20 Q402.27 -23.29 402.27 -18.46 L402.27 -0.00 L394.47 -0.00 L394.47 -17.68 Q394.47 -19.91 393.30 -21.13 Q392.13 -22.36 390.05 -22.36 Q387.97 -22.36 386.80 -21.13 Q385.63 -19.91 385.63 -17.68 L385.63 -0.00 L377.83 -0.00 Z M421.20 0.52 Q417.41 0.52 414.59 -0.91 Q411.79 -2.34 410.26 -4.92 Q408.72 -7.49 408.72 -10.92 L408.72 -17.68 Q408.72 -21.11 410.26 -23.68 Q411.79 -26.26 414.59 -27.69 Q417.41 -29.12 421.20 -29.12 Q425.05 -29.12 427.83 -27.69 Q430.61 -26.26 432.14 -23.68 Q433.68 -21.11 433.68 -17.68 L433.68 -10.92 Q433.68 -7.49 432.14 -4.92 Q430.61 -2.34 427.83 -0.91 Q425.05 0.52 421.20 0.52 Z M421.20 -6.24 Q423.49 -6.24 424.69 -7.46 Q425.88 -8.69 425.88 -10.92 L425.88 -17.68 Q425.88 -19.97 424.69 -21.17 Q423.49 -22.36 421.20 -22.36 Q418.97 -22.36 417.74 -21.17 Q416.52 -19.97 416.52 -17.68 L416.52 -10.92 Q416.52 -8.69 417.74 -7.46 Q418.97 -6.24 421.20 -6.24 Z" transform="translate(62.96,1292)" fill="#e8e8ed" fill-rule="evenodd"/><text x="64" y="1320" font-family="JetBrains Mono, monospace" font-size="13" fill="#6b6b76" text-anchor="start">ExtraBold · wordmark + headings</text><path d="M1.38 -0.00 L7.05 -21.90 L10.98 -21.90 L16.62 -0.00 L13.59 -0.00 L12.21 -5.70 L5.79 -5.70 L4.41 -0.00 L1.38 -0.00 Z M6.36 -8.16 L11.61 -8.16 L10.02 -14.70 Q9.60 -16.50 9.33 -17.76 Q9.06 -19.02 9.00 -19.47 Q8.94 -19.02 8.67 -17.76 Q8.40 -16.50 7.98 -14.73 L6.36 -8.16 Z M25.47 0.30 Q22.92 0.30 21.44 -1.12 Q19.95 -2.55 19.95 -4.86 Q19.95 -7.17 21.49 -8.58 Q23.04 -9.99 25.56 -9.99 L30.39 -9.99 L30.39 -11.25 Q30.39 -14.28 27.03 -14.28 Q25.53 -14.28 24.61 -13.72 Q23.70 -13.17 23.64 -12.18 L20.70 -12.18 Q20.85 -14.19 22.53 -15.49 Q24.21 -16.80 27.03 -16.80 Q30.06 -16.80 31.71 -15.36 Q33.36 -13.92 33.36 -11.31 L33.36 -0.00 L30.45 -0.00 L30.45 -3.03 L30.39 -3.03 Q30.18 -1.50 28.87 -0.60 Q27.57 0.30 25.47 0.30 Z M26.25 -2.19 Q28.14 -2.19 29.26 -3.10 Q30.39 -4.02 30.39 -5.61 L30.39 -7.80 L25.83 -7.80 Q24.54 -7.80 23.74 -7.04 Q22.95 -6.27 22.95 -5.01 Q22.95 -3.72 23.82 -2.95 Q24.69 -2.19 26.25 -2.19 Z M38.67 -0.00 L38.67 -21.90 L45.00 -21.90 Q48.03 -21.90 49.78 -20.39 Q51.54 -18.87 51.54 -16.23 Q51.54 -14.52 50.47 -13.19 Q49.41 -11.85 47.73 -11.55 L47.73 -11.46 Q48.99 -11.31 49.96 -10.56 Q50.94 -9.81 51.49 -8.65 Q52.05 -7.50 52.05 -6.12 Q52.05 -3.30 50.26 -1.65 Q48.48 -0.00 45.42 -0.00 L38.67 -0.00 Z M41.58 -12.66 L44.97 -12.66 Q46.65 -12.66 47.61 -13.54 Q48.57 -14.43 48.57 -15.96 Q48.57 -17.52 47.61 -18.40 Q46.65 -19.29 45.00 -19.29 L41.58 -19.29 L41.58 -12.66 Z M41.58 -2.61 L45.15 -2.61 Q46.98 -2.61 48.03 -3.59 Q49.08 -4.56 49.08 -6.24 Q49.08 -7.98 48.03 -9.06 Q46.98 -10.14 45.15 -10.14 L41.58 -10.14 L41.58 -2.61 Z M64.11 0.30 Q62.25 0.30 61.05 -0.63 Q59.85 -1.56 59.58 -3.21 L59.58 -3.21 L59.58 -0.00 L56.64 -0.00 L56.64 -21.90 L59.61 -21.90 L59.61 -17.16 L59.55 -13.32 L59.55 -13.32 Q59.82 -14.94 61.04 -15.87 Q62.25 -16.80 64.11 -16.80 Q66.57 -16.80 68.04 -15.14 Q69.51 -13.47 69.51 -10.62 L69.51 -5.88 Q69.51 -3.03 68.04 -1.36 Q66.57 0.30 64.11 0.30 Z M63.06 -2.28 Q64.71 -2.28 65.62 -3.13 Q66.54 -3.99 66.54 -5.91 L66.54 -10.59 Q66.54 -12.51 65.62 -13.36 Q64.71 -14.22 63.06 -14.22 Q61.47 -14.22 60.54 -13.23 Q59.61 -12.24 59.61 -10.44 L59.61 -6.06 Q59.61 -4.26 60.54 -3.27 Q61.47 -2.28 63.06 -2.28 Z M81.24 0.30 Q78.21 0.30 76.42 -1.39 Q74.64 -3.09 74.64 -6.06 L74.64 -15.87 Q74.64 -18.81 76.42 -20.50 Q78.21 -22.20 81.24 -22.20 Q84.24 -22.20 86.02 -20.49 Q87.81 -18.78 87.81 -15.87 L84.84 -15.87 Q84.84 -17.64 83.88 -18.60 Q82.92 -19.56 81.24 -19.56 Q79.53 -19.56 78.57 -18.60 Q77.61 -17.64 77.61 -15.87 L77.61 -6.06 Q77.61 -4.26 78.57 -3.30 Q79.53 -2.34 81.24 -2.34 Q82.92 -2.34 83.88 -3.30 Q84.84 -4.26 84.84 -6.06 L87.81 -6.06 Q87.81 -3.12 86.02 -1.41 Q84.24 0.30 81.24 0.30 Z M99.24 0.30 Q96.21 0.30 94.38 -1.39 Q92.55 -3.09 92.55 -6.06 L92.55 -10.47 Q92.55 -13.41 94.38 -15.10 Q96.21 -16.80 99.24 -16.80 Q102.15 -16.80 103.94 -15.25 Q105.72 -13.71 105.81 -11.04 L102.87 -11.04 Q102.78 -12.54 101.80 -13.36 Q100.83 -14.19 99.24 -14.19 Q97.53 -14.19 96.52 -13.21 Q95.52 -12.24 95.52 -10.47 L95.52 -6.06 Q95.52 -4.26 96.52 -3.30 Q97.53 -2.34 99.24 -2.34 Q100.86 -2.34 101.82 -3.15 Q102.78 -3.96 102.87 -5.46 L105.81 -5.46 Q105.72 -2.79 103.94 -1.24 Q102.15 0.30 99.24 0.30 Z M135.00 0.30 Q131.91 0.30 130.11 -1.45 Q128.31 -3.21 128.31 -6.18 L128.31 -15.72 Q128.31 -18.69 130.11 -20.44 Q131.91 -22.20 135.00 -22.20 Q138.09 -22.20 139.89 -20.44 Q141.69 -18.69 141.69 -15.72 L141.69 -6.18 Q141.69 -4.23 140.86 -2.77 Q140.04 -1.32 138.54 -0.51 Q137.04 0.30 135.00 0.30 Z M135.00 -2.25 Q136.74 -2.25 137.79 -3.34 Q138.84 -4.44 138.84 -6.18 L138.84 -15.72 Q138.84 -17.46 137.79 -18.55 Q136.74 -19.65 135.00 -19.65 Q133.26 -19.65 132.21 -18.55 Q131.16 -17.46 131.16 -15.72 L131.16 -6.18 Q131.16 -4.44 132.21 -3.34 Q133.26 -2.25 135.00 -2.25 Z M135.00 -9.27 Q134.16 -9.27 133.66 -9.74 Q133.17 -10.20 133.17 -11.04 Q133.17 -11.88 133.66 -12.31 Q134.16 -12.75 135.00 -12.75 Q135.84 -12.75 136.35 -12.31 Q136.86 -11.88 136.86 -11.04 Q136.86 -10.20 136.35 -9.74 Q135.84 -9.27 135.00 -9.27 Z M146.67 -0.00 L146.67 -2.70 L152.52 -2.70 L152.52 -19.23 L146.64 -14.85 L146.64 -18.21 L151.62 -21.90 L155.49 -21.90 L155.49 -2.70 L160.29 -2.70 L160.29 -0.00 L146.67 -0.00 Z M164.49 -0.00 L164.49 -2.73 L171.93 -10.59 Q173.37 -12.09 173.99 -13.33 Q174.60 -14.58 174.60 -15.78 Q174.60 -17.49 173.61 -18.52 Q172.62 -19.56 170.94 -19.56 Q169.20 -19.56 168.18 -18.51 Q167.16 -17.46 167.16 -15.66 L164.19 -15.66 Q164.25 -18.66 166.09 -20.43 Q167.94 -22.20 170.94 -22.20 Q174.00 -22.20 175.81 -20.46 Q177.63 -18.72 177.63 -15.81 Q177.63 -14.22 176.79 -12.50 Q175.95 -10.77 173.94 -8.70 L168.12 -2.70 L177.90 -2.70 L177.90 -0.00 L164.49 -0.00 Z M188.70 0.30 Q185.61 0.30 183.81 -1.39 Q182.01 -3.09 182.01 -6.00 L184.98 -6.00 Q184.98 -4.29 185.98 -3.31 Q186.99 -2.34 188.73 -2.34 Q190.44 -2.34 191.46 -3.31 Q192.48 -4.29 192.48 -6.00 L192.48 -7.53 Q192.48 -9.24 191.47 -10.24 Q190.47 -11.25 188.73 -11.25 L186.27 -11.25 L186.27 -13.74 L191.55 -19.23 L182.67 -19.23 L182.67 -21.90 L194.88 -21.90 L194.88 -19.20 L189.66 -13.80 Q192.33 -13.56 193.89 -11.89 Q195.45 -10.23 195.45 -7.53 L195.45 -6.00 Q195.45 -3.09 193.64 -1.39 Q191.82 0.30 188.70 0.30 Z M236.49 -1.89 L236.49 -4.71 L245.64 -9.12 Q246.21 -9.39 246.72 -9.58 Q247.23 -9.78 247.50 -9.84 Q247.23 -9.90 246.69 -10.09 Q246.15 -10.29 245.64 -10.56 L236.49 -15.00 L236.49 -17.91 L249.51 -11.49 L249.51 -8.31 L236.49 -1.89 Z M271.80 3.30 L271.80 0.75 L286.20 0.75 L286.20 3.30 L271.80 3.30 Z M312.00 3.30 L312.00 -24.90 L319.62 -24.90 L319.62 -22.23 L314.97 -22.23 L314.97 0.63 L319.62 0.63 L319.62 3.30 L312.00 3.30 Z M329.25 5.40 L331.65 -0.99 L325.50 -16.50 L328.65 -16.50 L332.37 -6.75 Q332.61 -6.12 332.85 -5.40 Q333.09 -4.68 333.18 -4.14 Q333.27 -4.68 333.48 -5.40 Q333.69 -6.12 333.93 -6.75 L337.38 -16.50 L340.53 -16.50 L332.34 5.40 L329.25 5.40 Z M344.13 3.30 L354.75 -24.90 L357.87 -24.90 L347.25 3.30 L344.13 3.30 Z M362.64 -0.00 L362.64 -16.50 L365.58 -16.50 L365.58 -13.35 L365.61 -13.35 Q365.82 -14.97 366.97 -15.89 Q368.13 -16.80 370.02 -16.80 Q372.48 -16.80 373.95 -15.24 Q375.42 -13.68 375.42 -11.04 L375.42 -0.00 L372.45 -0.00 L372.45 -10.56 Q372.45 -12.36 371.55 -13.32 Q370.65 -14.28 369.09 -14.28 Q367.47 -14.28 366.54 -13.28 Q365.61 -12.27 365.61 -10.47 L365.61 -0.00 L362.64 -0.00 Z M382.38 3.30 L382.38 0.63 L387.03 0.63 L387.03 -22.23 L382.38 -22.23 L382.38 -24.90 L390.00 -24.90 L390.00 3.30 L382.38 3.30 Z" transform="translate(622.62,1286)" fill="#a99cff" fill-rule="evenodd"/><text x="624" y="1320" font-family="JetBrains Mono, monospace" font-size="13" fill="#6b6b76" text-anchor="start">Medium · UI + labels</text><line x1="64" y1="1360" x2="1136" y2="1360" stroke="#26262e" stroke-width="1.5"/><text x="64" y="1400" font-family="JetBrains Mono, monospace" font-size="14" fill="#6b6b76" text-anchor="start">do &amp; don't</text><rect x="64" y="1420" width="262" height="150" rx="12" fill="#131318" stroke="#4ade80" stroke-width="1.5"/><g transform="translate(151.0,1434) scale(0.34)"><defs><linearGradient id="screenD0" x1="0" y1="0" x2="0" y2="1"><stop offset="0" stop-color="#1b1b23"/><stop offset="0.5" stop-color="#131319"/><stop offset="1" stop-color="#0c0c0e"/></linearGradient><linearGradient id="bevelD0" x1="0" y1="0" x2="0" y2="1"><stop offset="0" stop-color="#3d3d49"/><stop offset="1" stop-color="#20202b"/></linearGradient><linearGradient id="sheenD0" x1="0" y1="0" x2="0" y2="1"><stop offset="0" stop-color="#ffffff" stop-opacity="0.10"/><stop offset="1" stop-color="#ffffff" stop-opacity="0"/></linearGradient><linearGradient id="eyeD0" x1="0" y1="0" x2="0" y2="1"><stop offset="0" stop-color="#a99cff"/><stop offset="0.5" stop-color="#8b7bff"/><stop offset="1" stop-color="#5e46df"/></linearGradient><radialGradient id="hlD0" cx="50%" cy="50%" r="50%"><stop offset="0" stop-color="#ffffff" stop-opacity="0.92"/><stop offset="0.7" stop-color="#ffffff" stop-opacity="0.5"/><stop offset="1" stop-color="#ffffff" stop-opacity="0"/></radialGradient><filter id="softD0" x="-60%" y="-60%" width="220%" height="220%"><feGaussianBlur stdDeviation="4"/></filter><filter id="featherD0" x="-80%" y="-80%" width="260%" height="260%"><feGaussianBlur stdDeviation="1.1"/></filter></defs><rect x="20" y="20" width="216" height="216" rx="52" fill="url(#screenD0)" stroke="url(#bevelD0)" stroke-width="4"/><rect x="36" y="32" width="184" height="60" rx="34" fill="url(#sheenD0)"/><ellipse cx="128" cy="206" rx="80" ry="16" fill="#000" opacity="0.20" filter="url(#softD0)"/><rect x="78" y="98" width="44" height="58" rx="20" fill="url(#eyeD0)"/><circle cx="91" cy="113" r="9" fill="url(#hlD0)"/><circle cx="111" cy="141" r="3.2" fill="#ffffff" opacity="0.55"/><rect x="134" y="98" width="44" height="58" rx="20" fill="url(#eyeD0)"/><circle cx="147" cy="113" r="9" fill="url(#hlD0)"/><circle cx="167" cy="141" r="3.2" fill="#ffffff" opacity="0.55"/><ellipse cx="128" cy="167" rx="32" ry="10" fill="#7c6bff" opacity="0.14" filter="url(#softD0)"/><rect x="99" y="160" width="58" height="15" rx="7.5" fill="#7c6bff"/></g><circle cx="86" cy="1442" r="13" fill="#4ade80"/><text x="86" y="1447" font-family="JetBrains Mono, monospace" font-size="15" fill="#0d0d0f" text-anchor="middle">✓</text><text x="195.0" y="1550" font-family="JetBrains Mono, monospace" font-size="13" fill="#a0a0ab" text-anchor="middle">keep it on the dark tile</text><rect x="336" y="1420" width="262" height="150" rx="12" fill="#131318" stroke="#26262e" stroke-width="1.5"/><g transform="translate(435.0,1438) scale(1.0,1.0)"><rect x="6" y="4" width="52" height="52" rx="15" fill="#ff8ab6"/><rect x="20" y="20" width="9" height="13" rx="3.5" fill="#3a2030"/><rect x="35" y="20" width="9" height="13" rx="3.5" fill="#3a2030"/><rect x="22" y="40" width="20" height="6" rx="3" fill="#3a2030"/></g><circle cx="358" cy="1442" r="13" fill="#f87171"/><text x="358" y="1447" font-family="JetBrains Mono, monospace" font-size="15" fill="#0d0d0f" text-anchor="middle">✗</text><text x="467.0" y="1550" font-family="JetBrains Mono, monospace" font-size="13" fill="#a0a0ab" text-anchor="middle">recolor the body</text><rect x="608" y="1420" width="262" height="150" rx="12" fill="#131318" stroke="#26262e" stroke-width="1.5"/><g transform="translate(695.0,1440) scale(1.7,1.0)"><rect x="6" y="4" width="52" height="52" rx="15" fill="#1a1a21"/><rect x="20" y="20" width="9" height="13" rx="3.5" fill="#7c6bff"/><rect x="35" y="20" width="9" height="13" rx="3.5" fill="#7c6bff"/><rect x="22" y="40" width="20" height="6" rx="3" fill="#7c6bff"/></g><circle cx="630" cy="1442" r="13" fill="#f87171"/><text x="630" y="1447" font-family="JetBrains Mono, monospace" font-size="15" fill="#0d0d0f" text-anchor="middle">✗</text><text x="739.0" y="1550" font-family="JetBrains Mono, monospace" font-size="13" fill="#a0a0ab" text-anchor="middle">stretch or squash</text><rect x="880" y="1420" width="262" height="150" rx="12" fill="#131318" stroke="#26262e" stroke-width="1.5"/><rect x="971.0" y="1438" width="80" height="80" rx="16" fill="#5e46df"/><g transform="translate(979.0,1446) scale(0.78,0.78)"><rect x="6" y="4" width="52" height="52" rx="15" fill="#5e46df"/><rect x="20" y="20" width="9" height="13" rx="3.5" fill="#7c6bff"/><rect x="35" y="20" width="9" height="13" rx="3.5" fill="#7c6bff"/><rect x="22" y="40" width="20" height="6" rx="3" fill="#7c6bff"/></g><circle cx="902" cy="1442" r="13" fill="#f87171"/><text x="902" y="1447" font-family="JetBrains Mono, monospace" font-size="15" fill="#0d0d0f" text-anchor="middle">✗</text><text x="1011.0" y="1550" font-family="JetBrains Mono, monospace" font-size="13" fill="#a0a0ab" text-anchor="middle">place on low contrast</text><line x1="64" y1="1670" x2="1136" y2="1670" stroke="#26262e" stroke-width="1.5"/><text x="64" y="1702" font-family="JetBrains Mono, monospace" font-size="15" fill="#a0a0ab" text-anchor="start">munu · no AI of its own, just files + git · always your move on [y/n]</text><text x="1136" y="1702" font-family="JetBrains Mono, monospace" font-size="14" fill="#6b6b76" text-anchor="end">#7c6bff on #0d0d0f</text></svg>