<svg xmlns="http://www.w3.org/2000/svg" width="256" height="256" viewBox="0 0 256 256" role="img"><defs><linearGradient id="screenIC" x1="0" y1="0" x2="0" y2="1"><stop offset="0" stop-color="#1b1b23"/><stop offset="0.5" stop-color="#131319"/><stop offset="1" stop-color="#0c0c0e"/></linearGradient><linearGradient id="bevelIC" x1="0" y1="0" x2="0" y2="1"><stop offset="0" stop-color="#3d3d49"/><stop offset="1" stop-color="#20202b"/></linearGradient><linearGradient id="sheenIC" x1="0" y1="0" x2="0" y2="1"><stop offset="0" stop-color="#ffffff" stop-opacity="0.10"/><stop offset="1" stop-color="#ffffff" stop-opacity="0"/></linearGradient><linearGradient id="eyeIC" x1="0" y1="0" x2="0" y2="1"><stop offset="0" stop-color="#a99cff"/><stop offset="0.5" stop-color="#8b7bff"/><stop offset="1" stop-color="#5e46df"/></linearGradient><radialGradient id="hlIC" cx="50%" cy="50%" r="50%"><stop offset="0" stop-color="#ffffff" stop-opacity="0.92"/><stop offset="0.7" stop-color="#ffffff" stop-opacity="0.5"/><stop offset="1" stop-color="#ffffff" stop-opacity="0"/></radialGradient><filter id="softIC" x="-60%" y="-60%" width="220%" height="220%"><feGaussianBlur stdDeviation="4"/></filter><filter id="featherIC" x="-80%" y="-80%" width="260%" height="260%"><feGaussianBlur stdDeviation="1.1"/></filter></defs><rect x="20" y="20" width="216" height="216" rx="52" fill="url(#screenIC)" stroke="url(#bevelIC)" stroke-width="4"/><rect x="36" y="32" width="184" height="60" rx="34" fill="url(#sheenIC)"/><ellipse cx="128" cy="206" rx="80" ry="16" fill="#000" opacity="0.20" filter="url(#softIC)"/><rect x="78" y="98" width="44" height="58" rx="20" fill="url(#eyeIC)"/><circle cx="91" cy="113" r="9" fill="url(#hlIC)"/><circle cx="111" cy="141" r="3.2" fill="#ffffff" opacity="0.55"/><rect x="134" y="98" width="44" height="58" rx="20" fill="url(#eyeIC)"/><circle cx="147" cy="113" r="9" fill="url(#hlIC)"/><circle cx="167" cy="141" r="3.2" fill="#ffffff" opacity="0.55"/><ellipse cx="128" cy="167" rx="32" ry="10" fill="#7c6bff" opacity="0.14" filter="url(#softIC)"/><rect x="99" y="160" width="58" height="15" rx="7.5" fill="#7c6bff"/></svg>