<svg xmlns="http://www.w3.org/2000/svg" width="256" height="256" viewBox="0 0 256 256" role="img"><defs><radialGradient id="glownv" cx="50%" cy="47%" r="56%"><stop offset="0" stop-color="#e07bc6" stop-opacity="0.22"/><stop offset="1" stop-color="#e07bc6" stop-opacity="0"/></radialGradient><linearGradient id="screennv" x1="0" y1="0" x2="0" y2="1"><stop offset="0" stop-color="#1f1b24"/><stop offset="0.5" stop-color="#15131a"/><stop offset="1" stop-color="#0d0c0f"/></linearGradient><linearGradient id="bevelnv" x1="0" y1="0" x2="0" y2="1"><stop offset="0" stop-color="#473a47"/><stop offset="1" stop-color="#241f29"/></linearGradient><linearGradient id="sheennv" x1="0" y1="0" x2="0" y2="1"><stop offset="0" stop-color="#ffffff" stop-opacity="0.10"/><stop offset="1" stop-color="#ffffff" stop-opacity="0"/></linearGradient><linearGradient id="eyenv" x1="0" y1="0" x2="0" y2="1"><stop offset="0" stop-color="#f6c2e9"/><stop offset="0.5" stop-color="#e07bc6"/><stop offset="1" stop-color="#b8458f"/></linearGradient><radialGradient id="hlnv" cx="50%" cy="50%" r="50%"><stop offset="0" stop-color="#ffffff" stop-opacity="0.92"/><stop offset="0.7" stop-color="#ffffff" stop-opacity="0.5"/><stop offset="1" stop-color="#ffffff" stop-opacity="0"/></radialGradient><filter id="softnv" x="-60%" y="-60%" width="220%" height="220%"><feGaussianBlur stdDeviation="4"/></filter><filter id="feathernv" x="-80%" y="-80%" width="260%" height="260%"><feGaussianBlur stdDeviation="1.1"/></filter><linearGradient id="bownv" x1="0" y1="0" x2="0" y2="1"><stop offset="0" stop-color="#f29ad6"/><stop offset="1" stop-color="#cf5ca8"/></linearGradient></defs><circle cx="128" cy="120" r="132" fill="url(#glownv)"/><rect x="100" y="170" width="20" height="32" rx="10" fill="#161318" stroke="url(#bevelnv)" stroke-width="2.5"/><rect x="136" y="170" width="20" height="32" rx="10" fill="#161318" stroke="url(#bevelnv)" stroke-width="2.5"/><rect x="59" y="58" width="138" height="124" rx="40" fill="url(#screennv)" stroke="url(#bevelnv)" stroke-width="3"/><rect x="73" y="68" width="110" height="40" rx="20" fill="url(#sheennv)"/><ellipse cx="128" cy="188" rx="60" ry="14" fill="#000" opacity="0.22" filter="url(#softnv)"/><path d="M128 60 L93 51 Q83 60 93 69 Z" fill="url(#bownv)"/><path d="M128 60 L163 51 Q173 60 163 69 Z" fill="url(#bownv)"/><path d="M100 55 Q96 60 100 65" fill="none" stroke="#b8458f" stroke-width="2" opacity="0.5"/><path d="M156 55 Q160 60 156 65" fill="none" stroke="#b8458f" stroke-width="2" opacity="0.5"/><circle cx="128" cy="60" r="8.5" fill="#cf5ca8"/><circle cx="125" cy="57" r="2.8" fill="#fff" opacity="0.55"/><ellipse cx="83" cy="146" rx="11" ry="6.5" fill="#f29ad6" opacity="0.45" filter="url(#softnv)"/><ellipse cx="173" cy="146" rx="11" ry="6.5" fill="#f29ad6" opacity="0.45" filter="url(#softnv)"/><rect x="90" y="97" width="34" height="39" rx="16" fill="url(#eyenv)"/><circle cx="100" cy="106" r="7" fill="url(#hlnv)"/><circle cx="114.48" cy="122.74000000000001" r="2.6" fill="#fff" opacity="0.5"/><rect x="132" y="97" width="34" height="39" rx="16" fill="url(#eyenv)"/><circle cx="142" cy="106" r="7" fill="url(#hlnv)"/><circle cx="156.48" cy="122.74000000000001" r="2.6" fill="#fff" opacity="0.5"/><g stroke="#f6c2e9" stroke-width="3" stroke-linecap="round" fill="none"><path d="M92 96 l-7 -6"/><path d="M91 104 l-8 -3"/><path d="M164 96 l7 -6"/><path d="M165 104 l8 -3"/></g><rect x="108" y="150" width="40" height="10" rx="5" fill="#e07bc6"><animate attributeName="opacity" values="1;1;1;1;0.1;1" keyTimes="0;0.55;0.7;0.78;0.86;1" dur="1.7s" repeatCount="indefinite"/></rect><circle cx="108" cy="173" r="4.6" fill="#f6c2e9"><animate attributeName="opacity" values="0.2;1;0.2" dur="1.5s" begin="0.00s" repeatCount="indefinite"/></circle><circle cx="128" cy="173" r="4.6" fill="#f6c2e9"><animate attributeName="opacity" values="0.2;1;0.2" dur="1.5s" begin="0.22s" repeatCount="indefinite"/></circle><circle cx="148" cy="173" r="4.6" fill="#f6c2e9"><animate attributeName="opacity" values="0.2;1;0.2" dur="1.5s" begin="0.44s" repeatCount="indefinite"/></circle><path d="M190 64.8 C192.08 68.8 192.08 68.8 195.6 72 C192.08 75.2 192.08 75.2 190 79.2 C187.92 75.2 187.92 75.2 184.4 72 C187.92 68.8 187.92 68.8 190 64.8 Z" fill="#f6c2e9"/></svg>