<svg xmlns="http://www.w3.org/2000/svg" width="256" height="256" viewBox="0 0 256 256" role="img"><defs><radialGradient id="glownv" cx="50%" cy="47%" r="56%"><stop offset="0" stop-color="#e07bc6" stop-opacity="0.22"/><stop offset="1" stop-color="#e07bc6" stop-opacity="0"/></radialGradient><linearGradient id="screennv" x1="0" y1="0" x2="0" y2="1"><stop offset="0" stop-color="#1f1b24"/><stop offset="0.5" stop-color="#15131a"/><stop offset="1" stop-color="#0d0c0f"/></linearGradient><linearGradient id="bevelnv" x1="0" y1="0" x2="0" y2="1"><stop offset="0" stop-color="#473a47"/><stop offset="1" stop-color="#241f29"/></linearGradient><linearGradient id="sheennv" x1="0" y1="0" x2="0" y2="1"><stop offset="0" stop-color="#ffffff" stop-opacity="0.10"/><stop offset="1" stop-color="#ffffff" stop-opacity="0"/></linearGradient><linearGradient id="eyenv" x1="0" y1="0" x2="0" y2="1"><stop offset="0" stop-color="#f6c2e9"/><stop offset="0.5" stop-color="#e07bc6"/><stop offset="1" stop-color="#b8458f"/></linearGradient><radialGradient id="hlnv" cx="50%" cy="50%" r="50%"><stop offset="0" stop-color="#ffffff" stop-opacity="0.92"/><stop offset="0.7" stop-color="#ffffff" stop-opacity="0.5"/><stop offset="1" stop-color="#ffffff" stop-opacity="0"/></radialGradient><filter id="softnv" x="-60%" y="-60%" width="220%" height="220%"><feGaussianBlur stdDeviation="4"/></filter><filter id="feathernv" x="-80%" y="-80%" width="260%" height="260%"><feGaussianBlur stdDeviation="1.1"/></filter><linearGradient id="bownv" x1="0" y1="0" x2="0" y2="1"><stop offset="0" stop-color="#f29ad6"/><stop offset="1" stop-color="#cf5ca8"/></linearGradient></defs><rect x="20" y="20" width="216" height="216" rx="52" fill="url(#screennv)" stroke="url(#bevelnv)" stroke-width="4"/><rect x="36" y="32" width="184" height="60" rx="34" fill="url(#sheennv)"/><ellipse cx="128" cy="206" rx="80" ry="16" fill="#000" opacity="0.20" filter="url(#softnv)"/><g transform="translate(128,132) scale(1.1) translate(-128,-120)"><path d="M128 60 L93 51 Q83 60 93 69 Z" fill="url(#bownv)"/><path d="M128 60 L163 51 Q173 60 163 69 Z" fill="url(#bownv)"/><path d="M100 55 Q96 60 100 65" fill="none" stroke="#b8458f" stroke-width="2" opacity="0.5"/><path d="M156 55 Q160 60 156 65" fill="none" stroke="#b8458f" stroke-width="2" opacity="0.5"/><circle cx="128" cy="60" r="8.5" fill="#cf5ca8"/><circle cx="125" cy="57" r="2.8" fill="#fff" opacity="0.55"/><ellipse cx="83" cy="146" rx="11" ry="6.5" fill="#f29ad6" opacity="0.45" filter="url(#softnv)"/><ellipse cx="173" cy="146" rx="11" ry="6.5" fill="#f29ad6" opacity="0.45" filter="url(#softnv)"/><rect x="90" y="94" width="34" height="46" rx="16" fill="url(#eyenv)"/><path d="M96 131 q11 7 22 0" fill="none" stroke="#f6c2e9" stroke-width="2.4" opacity="0.4" filter="url(#feathernv)"/><circle cx="100" cy="106" r="7" fill="url(#hlnv)"/><circle cx="114.48" cy="124.36" r="2.6" fill="#fff" opacity="0.5"/><rect x="132" y="94" width="34" height="46" rx="16" fill="url(#eyenv)"/><path d="M138 131 q11 7 22 0" fill="none" stroke="#f6c2e9" stroke-width="2.4" opacity="0.4" filter="url(#feathernv)"/><circle cx="142" cy="106" r="7" fill="url(#hlnv)"/><circle cx="156.48" cy="124.36" r="2.6" fill="#fff" opacity="0.5"/><g stroke="#f6c2e9" stroke-width="3" stroke-linecap="round" fill="none"><path d="M92 96 l-7 -6"/><path d="M91 104 l-8 -3"/><path d="M164 96 l7 -6"/><path d="M165 104 l8 -3"/></g><ellipse cx="128" cy="156" rx="22" ry="7" fill="#e07bc6" opacity="0.14" filter="url(#softnv)"/><path d="M114 154 Q128 167 142 154" fill="none" stroke="#e07bc6" stroke-width="8" stroke-linecap="round"/></g></svg>