<svg xmlns="http://www.w3.org/2000/svg" width="256" height="256" viewBox="0 0 256 256" role="img"><defs><radialGradient id="glowad" cx="50%" cy="47%" r="56%"><stop offset="0" stop-color="#fbbf24" stop-opacity="0.18"/><stop offset="1" stop-color="#fbbf24" stop-opacity="0"/></radialGradient><linearGradient id="screenad" x1="0" y1="0" x2="0" y2="1"><stop offset="0" stop-color="#221e18"/><stop offset="0.5" stop-color="#161310"/><stop offset="1" stop-color="#0e0c09"/></linearGradient><linearGradient id="bevelad" x1="0" y1="0" x2="0" y2="1"><stop offset="0" stop-color="#4a4334"/><stop offset="1" stop-color="#26221a"/></linearGradient><linearGradient id="sheenad" x1="0" y1="0" x2="0" y2="1"><stop offset="0" stop-color="#ffffff" stop-opacity="0.10"/><stop offset="1" stop-color="#ffffff" stop-opacity="0"/></linearGradient><linearGradient id="eyead" x1="0" y1="0" x2="0" y2="1"><stop offset="0" stop-color="#ffe08a"/><stop offset="0.5" stop-color="#fbbf24"/><stop offset="1" stop-color="#d18a09"/></linearGradient><radialGradient id="hlad" cx="50%" cy="50%" r="50%"><stop offset="0" stop-color="#ffffff" stop-opacity="0.92"/><stop offset="0.7" stop-color="#ffffff" stop-opacity="0.5"/><stop offset="1" stop-color="#ffffff" stop-opacity="0"/></radialGradient><filter id="softad" x="-60%" y="-60%" width="220%" height="220%"><feGaussianBlur stdDeviation="4"/></filter><filter id="featherad" x="-80%" y="-80%" width="260%" height="260%"><feGaussianBlur stdDeviation="1.1"/></filter><linearGradient id="leafad" x1="0" y1="0" x2="0" y2="1"><stop offset="0" stop-color="#6ee79a"/><stop offset="1" stop-color="#2fa45f"/></linearGradient></defs><circle cx="128" cy="120" r="132" fill="url(#glowad)"/><rect x="96" y="182" width="22" height="32" rx="11" fill="#171410" stroke="url(#bevelad)" stroke-width="2.5"/><rect x="138" y="182" width="22" height="32" rx="11" fill="#171410" stroke="url(#bevelad)" stroke-width="2.5"/><rect x="58" y="58" width="140" height="138" rx="50" fill="url(#screenad)" stroke="url(#bevelad)" stroke-width="3"/><rect x="72" y="68" width="112" height="44" rx="24" fill="url(#sheenad)"/><ellipse cx="128" cy="198" rx="60" ry="14" fill="#000" opacity="0.22" filter="url(#softad)"/><path d="M128 58 C126 40 132 30 142 26 C140 38 138 50 128 58 Z" fill="url(#leafad)"/><path d="M128 58 C130 44 126 36 118 32 C120 42 122 52 128 58 Z" fill="url(#leafad)" opacity="0.9"/><ellipse cx="78" cy="156" rx="11" ry="6.5" fill="#ff9e6b" opacity="0.4" filter="url(#softad)"/><ellipse cx="178" cy="156" rx="11" ry="6.5" fill="#ff9e6b" opacity="0.4" filter="url(#softad)"/><path d="M84 135 Q102 113 120 135" fill="none" stroke="#fbbf24" stroke-width="8" stroke-linecap="round"/><path d="M136 135 Q154 113 172 135" fill="none" stroke="#fbbf24" stroke-width="8" stroke-linecap="round"/><g stroke="#ffe08a" stroke-width="3" stroke-linecap="round" fill="none"><path d="M86 104 l-7 -6"/><path d="M85 112 l-8 -3"/><path d="M170 104 l7 -6"/><path d="M171 112 l8 -3"/></g><ellipse cx="128" cy="165" rx="22" ry="7" fill="#fbbf24" opacity="0.14" filter="url(#softad)"/><path d="M110 161 Q128 181 146 161" fill="none" stroke="#fbbf24" stroke-width="8.5" stroke-linecap="round"/><path d="M72 75 C74.6 80 74.6 80 79 84 C74.6 88 74.6 88 72 93 C69.4 88 69.4 88 65 84 C69.4 80 69.4 80 72 75 Z" fill="#ffe08a"/><path d="M186 68.35 C188.21 72.6 188.21 72.6 191.95 76 C188.21 79.4 188.21 79.4 186 83.65 C183.79 79.4 183.79 79.4 180.05 76 C183.79 72.6 183.79 72.6 186 68.35 Z" fill="#ffe08a"/></svg>